<?xml version="1.0" encoding="UTF-8" standalone="no"?>
<!-- Created with Inkscape (http://www.inkscape.org/) -->

<svg
   xmlns:dc="http://purl.org/dc/elements/1.1/"
   xmlns:cc="http://creativecommons.org/ns#"
   xmlns:rdf="http://www.w3.org/1999/02/22-rdf-syntax-ns#"
   xmlns:svg="http://www.w3.org/2000/svg"
   xmlns="http://www.w3.org/2000/svg"
   xmlns:xlink="http://www.w3.org/1999/xlink"
   xmlns:sodipodi="http://sodipodi.sourceforge.net/DTD/sodipodi-0.dtd"
   xmlns:inkscape="http://www.inkscape.org/namespaces/inkscape"
   width="210mm"
   height="297mm"
   viewBox="0 0 210 297"
   version="1.1"
   id="svg8"
   inkscape:version="0.92.5 (2060ec1f9f, 2020-04-08)"
   sodipodi:docname="Joana inha.svg">
  <defs
     id="defs2">
    <linearGradient
       id="linearGradient5742"
       inkscape:collect="always">
      <stop
         id="stop5738"
         offset="0"
         style="stop-color:#ffffff;stop-opacity:1;" />
      <stop
         id="stop5740"
         offset="1"
         style="stop-color:#ffffff;stop-opacity:0;" />
    </linearGradient>
    <inkscape:path-effect
       is_visible="true"
       id="path-effect5191"
       effect="spiro" />
    <inkscape:path-effect
       is_visible="true"
       id="path-effect5187"
       effect="spiro" />
    <inkscape:path-effect
       is_visible="true"
       id="path-effect5183"
       effect="spiro" />
    <inkscape:path-effect
       is_visible="true"
       id="path-effect5179"
       effect="spiro" />
    <inkscape:path-effect
       is_visible="true"
       id="path-effect5175"
       effect="spiro" />
    <inkscape:path-effect
       is_visible="true"
       id="path-effect5171"
       effect="spiro" />
    <radialGradient
       gradientUnits="userSpaceOnUse"
       gradientTransform="matrix(3.7795276,0,0,3.1917323,-97.176718,40.162451)"
       r="36.902668"
       fy="145.08496"
       fx="138.48546"
       cy="145.08496"
       cx="138.48546"
       id="radialGradient5744"
       xlink:href="#linearGradient5742"
       inkscape:collect="always" />
    <filter
       height="2.4677568"
       y="-0.73387838"
       width="2.23949"
       x="-0.619745"
       id="filter6576"
       style="color-interpolation-filters:sRGB"
       inkscape:collect="always">
      <feGaussianBlur
         id="feGaussianBlur6578"
         stdDeviation="19.058537"
         inkscape:collect="always" />
    </filter>
  </defs>
  <sodipodi:namedview
     id="base"
     pagecolor="#ffffff"
     bordercolor="#666666"
     borderopacity="1.0"
     inkscape:pageopacity="0.0"
     inkscape:pageshadow="2"
     inkscape:zoom="0.98994949"
     inkscape:cx="563.93496"
     inkscape:cy="699.07464"
     inkscape:document-units="mm"
     inkscape:current-layer="layer1-6"
     showgrid="false"
     inkscape:window-width="1920"
     inkscape:window-height="1011"
     inkscape:window-x="0"
     inkscape:window-y="0"
     inkscape:window-maximized="1" />
  <metadata
     id="metadata5">
    <rdf:RDF>
      <cc:Work
         rdf:about="">
        <dc:format>image/svg+xml</dc:format>
        <dc:type
           rdf:resource="http://purl.org/dc/dcmitype/StillImage" />
        <dc:title></dc:title>
      </cc:Work>
    </rdf:RDF>
  </metadata>
  <g
     inkscape:label="Camada 1"
     inkscape:groupmode="layer"
     id="layer1">
    <g
       id="layer1-6"
       inkscape:label="Camada 1"
       transform="translate(0.44115667,15.107027)">
      <path
         d="M 89.570995,94.861399 A 23.300909,24.601412 0 0 1 111.34168,68.862126 23.300909,24.601412 0 0 1 136.07686,91.715511 L 112.8315,93.4132 Z"
         sodipodi:end="6.2141226"
         sodipodi:start="3.0826921"
         sodipodi:ry="24.601412"
         sodipodi:rx="23.300909"
         sodipodi:cy="93.4132"
         sodipodi:cx="112.8315"
         sodipodi:type="arc"
         id="path5149"
         style="fill:#d40000;stroke-width:0.33337817" />
      <ellipse
         ry="52.685307"
         rx="48.667912"
         cy="139.63277"
         cx="113.40541"
         id="path5054"
         style="fill:#d40000;stroke-width:0.26458332" />
      <path
         id="path5193"
         transform="scale(0.26458333)"
         d="M 426.23242,385.45117 A 139.47465,117.78344 0 0 0 286.75781,503.23438 139.47465,117.78344 0 0 0 426.23242,621.01758 139.47465,117.78344 0 0 0 565.70703,503.23438 139.47465,117.78344 0 0 0 426.23242,385.45117 Z"
         style="opacity:0.853;fill:url(#radialGradient5744);fill-opacity:1;stroke-width:0.99999994;filter:url(#filter6576)"
         inkscape:connector-curvature="0" />
      <path
         transform="matrix(0,-1,-1,0,0,0)"
         d="m -87.309769,-113.42337 a 57.759384,61.179237 0 0 1 -45.998771,59.897609 57.759384,61.179237 0 0 1 -64.73075,-35.505633"
         sodipodi:open="true"
         sodipodi:end="2.7314971"
         sodipodi:start="0"
         sodipodi:ry="61.179237"
         sodipodi:rx="57.759384"
         sodipodi:cy="-113.42337"
         sodipodi:cx="-145.06915"
         sodipodi:type="arc"
         id="path5059"
         style="fill:#ff2a2a;stroke-width:0.3090944" />
      <path
         id="path5063"
         transform="scale(0.26458333)"
         d="m 425,329.99023 92.18945,418.50391 A 231.22861,218.30318 0 0 0 651.38477,503.84375 231.22861,218.30318 0 0 0 425,329.99023 Z"
         style="fill:#ff2a2a;stroke-width:1.16823077"
         inkscape:connector-curvature="0" />
      <path
         d="m 85.857542,105.65706 a 2.6400046,2.1808734 0 0 1 -2.594426,2.18055 2.6400046,2.1808734 0 0 1 -2.68401,-2.10526 2.6400046,2.1808734 0 0 1 2.501747,-2.25324 2.6400046,2.1808734 0 0 1 2.770395,2.02745 l -2.633711,0.1505 z"
         sodipodi:end="6.2141224"
         sodipodi:start="0"
         sodipodi:ry="2.1808734"
         sodipodi:rx="2.6400046"
         sodipodi:cy="105.65706"
         sodipodi:cx="83.217537"
         sodipodi:type="arc"
         id="path5067"
         style="fill:#000000;stroke-width:0.26458332" />
      <path
         d="m 103.87843,98.88488 a 2.6400046,2.1808734 0 0 1 -2.59442,2.18055 2.6400046,2.1808734 0 0 1 -2.684015,-2.105256 2.6400046,2.1808734 0 0 1 2.501745,-2.253242 2.6400046,2.1808734 0 0 1 2.7704,2.02745 l -2.63371,0.150498 z"
         sodipodi:end="6.2141224"
         sodipodi:start="0"
         sodipodi:ry="2.1808734"
         sodipodi:rx="2.6400046"
         sodipodi:cy="98.88488"
         sodipodi:cx="101.23843"
         sodipodi:type="arc"
         id="path5067-6"
         style="fill:#000000;stroke-width:0.26458332" />
      <path
         d="m 94.007116,126.43275 a 2.6400046,2.1808734 0 0 1 -2.594425,2.18055 2.6400046,2.1808734 0 0 1 -2.684011,-2.10526 2.6400046,2.1808734 0 0 1 2.501748,-2.25324 2.6400046,2.1808734 0 0 1 2.770394,2.02745 l -2.633711,0.1505 z"
         sodipodi:end="6.2141224"
         sodipodi:start="0"
         sodipodi:ry="2.1808734"
         sodipodi:rx="2.6400046"
         sodipodi:cy="126.43275"
         sodipodi:cx="91.367111"
         sodipodi:type="arc"
         id="path5067-8"
         style="fill:#000000;stroke-width:0.26458332" />
      <path
         d="m 70.820989,128.03972 a 2.6400046,2.1808734 0 0 1 -2.594425,2.18055 2.6400046,2.1808734 0 0 1 -2.68401,-2.10526 2.6400046,2.1808734 0 0 1 2.501747,-2.25324 2.6400046,2.1808734 0 0 1 2.770395,2.02745 l -2.633712,0.1505 z"
         sodipodi:end="6.2141224"
         sodipodi:start="0"
         sodipodi:ry="2.1808734"
         sodipodi:rx="2.6400046"
         sodipodi:cy="128.03972"
         sodipodi:cx="68.180984"
         sodipodi:type="arc"
         id="path5067-84"
         style="fill:#000000;stroke-width:0.26458332" />
      <path
         d="m 66.459241,152.1441 a 2.6400046,2.1808734 0 0 1 -2.594425,2.18055 2.6400046,2.1808734 0 0 1 -2.68401,-2.10525 2.6400046,2.1808734 0 0 1 2.501747,-2.25324 2.6400046,2.1808734 0 0 1 2.770395,2.02745 l -2.633711,0.15049 z"
         sodipodi:end="6.2141224"
         sodipodi:start="0"
         sodipodi:ry="2.1808734"
         sodipodi:rx="2.6400046"
         sodipodi:cy="152.1441"
         sodipodi:cx="63.819237"
         sodipodi:type="arc"
         id="path5067-3"
         style="fill:#000000;stroke-width:0.26458332" />
      <path
         d="m 87.349714,161.09717 a 2.6400046,2.1808734 0 0 1 -2.594425,2.18055 2.6400046,2.1808734 0 0 1 -2.684011,-2.10526 2.6400046,2.1808734 0 0 1 2.501748,-2.25324 2.6400046,2.1808734 0 0 1 2.770394,2.02745 l -2.633711,0.1505 z"
         sodipodi:end="6.2141224"
         sodipodi:start="0"
         sodipodi:ry="2.1808734"
         sodipodi:rx="2.6400046"
         sodipodi:cy="161.09717"
         sodipodi:cx="84.709709"
         sodipodi:type="arc"
         id="path5067-1"
         style="fill:#000000;stroke-width:0.26458332" />
      <path
         d="m 131.88544,95.670959 a 2.6400046,2.1808734 0 0 1 -2.59442,2.180549 2.6400046,2.1808734 0 0 1 -2.68401,-2.105255 2.6400046,2.1808734 0 0 1 2.50174,-2.253242 2.6400046,2.1808734 0 0 1 2.7704,2.027451 l -2.63371,0.150497 z"
         sodipodi:end="6.2141224"
         sodipodi:start="0"
         sodipodi:ry="2.1808734"
         sodipodi:rx="2.6400046"
         sodipodi:cy="95.670959"
         sodipodi:cx="129.24544"
         sodipodi:type="arc"
         id="path5067-4"
         style="fill:#000000;stroke-width:0.26458332" />
      <path
         d="m 151.85766,107.83794 a 2.6400046,2.1808734 0 0 1 -2.59443,2.18054 2.6400046,2.1808734 0 0 1 -2.68401,-2.10525 2.6400046,2.1808734 0 0 1 2.50175,-2.25324 2.6400046,2.1808734 0 0 1 2.77039,2.02745 l -2.63371,0.1505 z"
         sodipodi:end="6.2141224"
         sodipodi:start="0"
         sodipodi:ry="2.1808734"
         sodipodi:rx="2.6400046"
         sodipodi:cy="107.83794"
         sodipodi:cx="149.21765"
         sodipodi:type="arc"
         id="path5067-9"
         style="fill:#000000;stroke-width:0.26458332" />
      <path
         d="m 133.03327,115.4136 a 2.6400046,2.1808734 0 0 1 -2.59443,2.18055 2.6400046,2.1808734 0 0 1 -2.68401,-2.10526 2.6400046,2.1808734 0 0 1 2.50175,-2.25324 2.6400046,2.1808734 0 0 1 2.7704,2.02745 l -2.63372,0.1505 z"
         sodipodi:end="6.2141224"
         sodipodi:start="0"
         sodipodi:ry="2.1808734"
         sodipodi:rx="2.6400046"
         sodipodi:cy="115.4136"
         sodipodi:cx="130.39326"
         sodipodi:type="arc"
         id="path5067-2"
         style="fill:#000000;stroke-width:0.26458332" />
      <path
         d="m 159.43331,140.2067 a 2.6400046,2.1808734 0 0 1 -2.59443,2.18054 2.6400046,2.1808734 0 0 1 -2.68401,-2.10525 2.6400046,2.1808734 0 0 1 2.50175,-2.25324 2.6400046,2.1808734 0 0 1 2.7704,2.02745 l -2.63372,0.1505 z"
         sodipodi:end="6.2141224"
         sodipodi:start="0"
         sodipodi:ry="2.1808734"
         sodipodi:rx="2.6400046"
         sodipodi:cy="140.2067"
         sodipodi:cx="156.7933"
         sodipodi:type="arc"
         id="path5067-0"
         style="fill:#000000;stroke-width:0.26458332" />
      <path
         d="m 140.60894,146.86409 a 2.6400046,2.1808734 0 0 1 -2.59443,2.18055 2.6400046,2.1808734 0 0 1 -2.68401,-2.10526 2.6400046,2.1808734 0 0 1 2.50175,-2.25324 2.6400046,2.1808734 0 0 1 2.77039,2.02745 l -2.63371,0.1505 z"
         sodipodi:end="6.2141224"
         sodipodi:start="0"
         sodipodi:ry="2.1808734"
         sodipodi:rx="2.6400046"
         sodipodi:cy="146.86409"
         sodipodi:cx="137.96893"
         sodipodi:type="arc"
         id="path5067-68"
         style="fill:#000000;stroke-width:0.26458332" />
      <path
         d="m 159.66288,167.98413 a 2.6400046,2.1808734 0 0 1 -2.59443,2.18055 2.6400046,2.1808734 0 0 1 -2.68401,-2.10526 2.6400046,2.1808734 0 0 1 2.50175,-2.25324 2.6400046,2.1808734 0 0 1 2.77039,2.02745 l -2.63371,0.1505 z"
         sodipodi:end="6.2141224"
         sodipodi:start="0"
         sodipodi:ry="2.1808734"
         sodipodi:rx="2.6400046"
         sodipodi:cy="167.98413"
         sodipodi:cx="157.02287"
         sodipodi:type="arc"
         id="path5067-92"
         style="fill:#000000;stroke-width:0.26458332" />
      <ellipse
         ry="6.0834889"
         rx="3.960007"
         cy="69.730057"
         cx="105.54278"
         id="path5153"
         style="fill:#000000;stroke-width:0.26458332" />
      <ellipse
         style="fill:#000000;stroke-width:0.26458332"
         id="ellipse5155"
         cx="119.08716"
         cy="69.500488"
         rx="3.960007"
         ry="6.0834889" />
      <ellipse
         ry="1.8939162"
         rx="1.1478281"
         cy="69.787437"
         cx="108.01062"
         id="path5157"
         style="fill:#ffffff;stroke-width:0.26458332" />
      <ellipse
         style="fill:#ffffff;stroke-width:0.26458332"
         id="ellipse5161"
         cx="116.50455"
         cy="69.672653"
         rx="1.1478281"
         ry="1.8939162" />
      <path
         inkscape:connector-curvature="0"
         id="path5163"
         d="m 110.80508,68.883626 c 0,-0.295997 0,-0.591995 0,-0.887992 0,-0.160337 0.0166,-0.321221 0,-0.480996 -0.0143,-0.137416 -0.0828,-0.269515 -0.0966,-0.407001 -0.019,-0.184454 0.0309,-0.371517 0,-0.554996 -0.034,-0.201729 -0.14941,-0.391355 -0.19319,-0.591994 -0.0371,-0.170749 -0.0238,-0.345951 -0.0483,-0.517996 -0.0238,-0.161231 -0.0654,-0.32053 -0.0966,-0.480995 -0.0333,-0.172536 -0.0395,-0.34916 -0.0966,-0.517996 -0.0564,-0.166282 -0.17297,-0.31739 -0.24138,-0.480995 -0.0607,-0.145294 -0.0947,-0.296384 -0.14489,-0.444002 -0.0464,-0.136067 -0.0921,-0.272303 -0.1449,-0.406997 -0.0438,-0.11207 -0.0992,-0.221317 -0.14489,-0.332997 -0.035,-0.0857 -0.0621,-0.173174 -0.0966,-0.258997 -0.03,-0.07456 -0.0661,-0.147555 -0.0966,-0.221998 -0.0502,-0.122901 -0.0809,-0.250932 -0.14489,-0.369996 -0.0495,-0.09196 -0.14609,-0.166337 -0.19319,-0.259 -0.0666,-0.131052 -0.0821,-0.274841 -0.1449,-0.406994 -0.0664,-0.140061 -0.1625,-0.270819 -0.2414,-0.406997 -0.0497,-0.08583 -0.093,-0.173886 -0.14489,-0.258999 -0.0609,-0.09996 -0.13824,-0.193995 -0.1932,-0.296001 -0.058,-0.108186 -0.0894,-0.223949 -0.14489,-0.332997 -0.0573,-0.113201 -0.12872,-0.221999 -0.19319,-0.332997 -0.0804,-0.123339 -0.17464,-0.241968 -0.2414,-0.369997 -0.0623,-0.119546 -0.0823,-0.250445 -0.1449,-0.369997 -0.0669,-0.128025 -0.16749,-0.244254 -0.24137,-0.369997 -0.0711,-0.121132 -0.13038,-0.246198 -0.19319,-0.369997 -0.0497,-0.09821 -0.0859,-0.200765 -0.1449,-0.295997 -0.22341,-0.361554 -0.38015,-0.490675 -0.62759,-0.850999 -0.0571,-0.08311 -0.0899,-0.174979 -0.1449,-0.258997 -0.26954,-0.413158 -0.13442,-0.124834 -0.48274,-0.591994 -0.0431,-0.05766 -0.0645,-0.123339 -0.0966,-0.184999 -0.0966,-0.123321 -0.18558,-0.250323 -0.28965,-0.369997 -0.0892,-0.102625 -0.20699,-0.190242 -0.28967,-0.295997 -0.0631,-0.08054 -0.0868,-0.176293 -0.1449,-0.258998 -0.055,-0.07832 -0.13228,-0.14626 -0.19319,-0.221999 -0.068,-0.08468 -0.12443,-0.174669 -0.19319,-0.258997 -0.0966,-0.110994 -0.1932,-0.221998 -0.28965,-0.332997 -0.0645,-0.04934 -0.14085,-0.09085 -0.19319,-0.147992 -0.0619,-0.06778 -0.093,-0.14936 -0.1449,-0.222 -0.045,-0.06313 -0.0911,-0.126092 -0.1449,-0.185003 -0.005,-0.0038 -0.38472,-0.368071 -0.38622,-0.369996 -0.0445,-0.05695 -0.0521,-0.128044 -0.0966,-0.184998 -0.21842,-0.279117 -0.17059,-0.100418 -0.4345,-0.369997 -0.0778,-0.07956 -0.11206,-0.181361 -0.19319,-0.258999 -0.0502,-0.04814 -0.1449,-0.06167 -0.1932,-0.110994 -0.0995,-0.101585 -0.14394,-0.230307 -0.24137,-0.332997 -0.034,-0.03594 -0.10135,-0.04449 -0.14489,-0.074 -0.10207,-0.06953 -0.20224,-0.14161 -0.28965,-0.221998 -0.0742,-0.06832 -0.11968,-0.15317 -0.1932,-0.221999 -0.70458,-0.659987 0.0685,0.08953 -0.38622,-0.258997 -0.0728,-0.05585 -0.12705,-0.124342 -0.19319,-0.184999 -0.0949,-0.08736 -0.18939,-0.17518 -0.28965,-0.258998 -0.0769,-0.06429 -0.1694,-0.117504 -0.2414,-0.184997 -0.46416,-0.434807 0.1399,-0.0064 -0.531019,-0.481002 -0.72914,-0.515825 0.103979,0.104958 -0.53104,-0.332997 -0.60602,-0.464438 0.11159,0.07195 -0.48277,-0.332997 -0.068,-0.04637 -0.12872,-0.09867 -0.19319,-0.147992 -0.0483,-0.037 -0.0902,-0.07959 -0.1449,-0.110994 -3.8e-4,-2.12e-4 -0.48053,-0.220933 -0.48277,-0.221998 -0.0493,-0.02354 -0.0916,-0.05647 -0.1449,-0.074 -0.0609,-0.02002 -0.13918,-0.0075 -0.19319,-0.037 -0.0654,-0.03585 -0.0837,-0.107876 -0.14489,-0.147992 -0.0547,-0.03589 -0.12872,-0.04933 -0.1932,-0.074 -0.12871,-0.04932 -0.26281,-0.09125 -0.38622,-0.147992 -0.0994,-0.04573 -0.19819,-0.0934 -0.28967,-0.147993 -0.32315,-0.192636 0.0528,-0.03479 -0.33792,-0.221999 -0.0609,-0.02923 -0.13062,-0.04666 -0.1932,-0.074 -0.10064,-0.04415 -0.19129,-0.100856 -0.28964,-0.147992 -0.0797,-0.03811 -0.15989,-0.07533 -0.2414,-0.110994 -0.0312,-0.01368 -0.0685,-0.01978 -0.0966,-0.037 -0.0533,-0.03271 -0.0966,-0.074 -0.14489,-0.110994 -0.0167,-0.0124 -0.0357,-0.02248 -0.0483,-0.037 -0.0469,-0.05392 -0.0302,-0.07708 -0.0966,-0.110995 -0.06,-0.03058 -0.1368,-0.03957 -0.19319,-0.074 -0.0533,-0.03271 -0.0902,-0.07961 -0.1449,-0.110994 -0.0119,-0.0073 -0.0338,0.0055 -0.0483,0 -0.0214,-0.0078 -0.0278,-0.02919 -0.0483,-0.037 -0.0455,-0.0175 -0.0954,-0.02755 -0.1449,-0.037 -0.0166,-0.0029 -0.035,0.0069 -0.0483,0 -0.0378,-0.01935 -0.0588,-0.05465 -0.0966,-0.074 -0.0143,-0.0069 -0.0338,0.0055 -0.0483,0 -0.0214,-0.0078 -0.0321,-0.02465 -0.0483,-0.037 -0.0321,-0.0124 -0.0633,-0.02677 -0.0966,-0.037 -0.18487,-0.05669 -0.10064,-0.0029 -0.19319,-0.074"
         style="fill:none;stroke:#000000;stroke-width:0.55109859px;stroke-linecap:butt;stroke-linejoin:miter;stroke-opacity:1" />
      <path
         inkscape:connector-curvature="0"
         id="path5165"
         d="m 113.11438,68.672963 c 0.0767,-0.08139 0.17539,-0.15642 0.22971,-0.2442 0.24102,-0.390646 5.6e-4,-0.285529 0.17228,-0.732604 0.0826,-0.21487 0.25884,-0.413521 0.34442,-0.627951 0.0682,-0.171017 0.0594,-0.350551 0.11485,-0.523287 0.36804,-1.150315 0.24923,-0.324413 0.51662,-1.569864 0.0546,-0.254728 0.0198,-0.516994 0.11485,-0.76749 0.0993,-0.265455 0.33379,-0.506162 0.45922,-0.767495 0.81679,-1.701983 -0.10976,-0.149131 0.68881,-1.674523 1.00353,-1.916849 -0.0334,0.314902 0.80361,-1.465211 0.11995,-0.254968 0.19689,-0.517906 0.34442,-0.767488 0.12136,-0.205635 0.30974,-0.394358 0.45919,-0.593061 0.20397,-0.271121 0.7478,-1.019568 0.91844,-1.290781 0.10806,-0.171739 0.17454,-0.352571 0.28699,-0.523289 0.0795,-0.120711 0.21075,-0.22736 0.28702,-0.348859 0.0778,-0.123892 0.082,-0.263042 0.17228,-0.383745 0.74766,-0.999645 0.0931,0.215198 0.68881,-0.767488 0.0546,-0.08999 0.0506,-0.191462 0.11486,-0.279089 0.23536,-0.321836 0.45639,-0.393452 0.74624,-0.697716 0.0945,-0.09912 0.11655,-0.222353 0.2297,-0.313978 0.12193,-0.09889 0.31981,-0.154185 0.45922,-0.2442 0.16804,-0.108436 0.29642,-0.237556 0.45919,-0.348859 0.14371,-0.09833 0.31152,-0.18291 0.45922,-0.279089 0.0198,-0.01272 0.58909,-0.416359 0.63141,-0.453515 0.0877,-0.07708 0.13324,-0.170983 0.22971,-0.244201 0.0597,-0.04541 0.15899,-0.06554 0.22971,-0.104653 0.23282,-0.128637 0.55209,-0.335034 0.74621,-0.488403 0.084,-0.06647 0.14484,-0.14313 0.22971,-0.209314 0.0498,-0.03894 0.11485,-0.06977 0.17228,-0.104653 0.0198,-0.01169 0.0424,-0.0212 0.0574,-0.03488 0.062,-0.05643 0.11033,-0.118012 0.17229,-0.17443 0.0331,-0.03012 0.1273,-0.0774 0.17228,-0.104653 0.0653,-0.0398 0.21556,-0.141858 0.28699,-0.174436 0.0342,-0.01564 0.0806,-0.01929 0.11485,-0.03488 0.0433,-0.01974 0.0716,-0.05003 0.11486,-0.06977 0.0342,-0.01564 0.0792,-0.02048 0.11485,-0.03488 0.0226,-0.0091 0.0382,-0.02324 0.0574,-0.03488 0.0767,-0.02325 0.15615,-0.04303 0.22971,-0.06977 0.0464,-0.01685 0.0665,-0.05505 0.11485,-0.06977 0.054,-0.0165 0.12023,-0.01599 0.17228,-0.03488 0.2662,0.02985 0.0659,-0.07501 0.11485,-0.104653 0.0142,-0.0083 0.0402,0.0052 0.0574,0 0.0255,-0.0074 0.0348,-0.02576 0.0574,-0.03488 0.0356,-0.01444 0.0846,-0.01651 0.11485,-0.03489 0.0303,-0.01838 0.0337,-0.04814 0.0574,-0.06977 0.0526,-0.04799 0.0885,-0.0359 0.17228,-0.06977 0.0226,-0.0091 0.0382,-0.02325 0.0574,-0.03488 0.0382,-0.02324 0.0849,-0.0424 0.11485,-0.06977 0.0113,-0.0096 -0.0113,-0.0252 0,-0.03488 0.0325,-0.04721 0.1273,-0.06361 0.17228,-0.104653 0.0226,-0.02165 0.0337,-0.04814 0.0574,-0.06977 0.0141,-0.01375 0.0382,-0.02324 0.0574,-0.03488 0.0198,-0.02325 0.0337,-0.04814 0.0574,-0.06977 0.03,-0.02739 0.0767,-0.04651 0.11486,-0.06977 0.0574,-0.03488 0.11485,-0.06977 0.17228,-0.104653 0.17228,-0.104653 0.34439,-0.209314 0.51661,-0.313973 0.11486,-0.06977 0.22971,-0.139537 0.3444,-0.209314 0.0393,-0.02383 0.12928,-0.08906 0.17228,-0.104653 0.0733,-0.02675 0.15615,-0.04303 0.2297,-0.06977 0.0226,-0.0084 0.0334,-0.02753 0.0574,-0.03488 0.054,-0.0165 0.11825,-0.01843 0.17228,-0.03488 0.0255,-0.0074 0.0382,-0.02324 0.0574,-0.03488 0.0574,-0.03488 0.10891,-0.07384 0.17228,-0.104653 0.16493,-0.08024 0.0798,0.01427 0.28702,-0.06977 0.69144,-0.280156 -0.35695,0.04491 0.40179,-0.139537 0.0504,-0.01221 0.0665,-0.05507 0.11486,-0.06977 0.054,-0.01651 0.12022,-0.01599 0.17228,-0.03488 0.0464,-0.01685 0.0665,-0.05507 0.11485,-0.06977 0.11485,-0.03488 0.086,0.01742 0.17228,0 0.4158,-0.08423 -0.0905,0.01 0.17228,-0.06977 0.0342,-0.01049 0.0829,0.01289 0.11486,0 0.045,-0.01824 0.0764,-0.04652 0.11485,-0.06977 0.0198,-0.01169 0.0334,-0.02753 0.0574,-0.03488 0.017,-0.0052 0.0402,0.0052 0.0574,0 0.0255,-0.0074 0.0382,-0.02324 0.0574,-0.03488 0.0877,-0.05328 0.0453,-0.0202 0.11485,-0.104653"
         style="fill:none;stroke:#000000;stroke-width:0.58350766px;stroke-linecap:butt;stroke-linejoin:miter;stroke-opacity:1" />
      <path
         style="fill:none;stroke:#000000;stroke-width:0.26458332px;stroke-linecap:butt;stroke-linejoin:miter;stroke-opacity:1"
         d="M 67.712572,107.36597 25.483987,85.182599"
         id="path179"
         inkscape:connector-curvature="0" />
      <path
         style="fill:none;stroke:#000000;stroke-width:0.26458332px;stroke-linecap:butt;stroke-linejoin:miter;stroke-opacity:1"
         d="m 52.478208,138.90377 -44.36674,0.26727"
         id="path181"
         inkscape:connector-curvature="0" />
      <path
         style="fill:none;stroke:#000000;stroke-width:0.26458332px;stroke-linecap:butt;stroke-linejoin:miter;stroke-opacity:1"
         d="M 67.712572,183.27052 21.474944,205.18661"
         id="path183"
         inkscape:connector-curvature="0" />
    </g>
    <path
       style="fill:none;stroke:#000000;stroke-width:0.26458332px;stroke-linecap:butt;stroke-linejoin:miter;stroke-opacity:1"
       d="m 164.41964,127.28869 c 0.75595,0.25198 1.51191,0.50397 2.26786,0.75595 0.25198,0 0.51149,-0.0611 0.75595,0 0.27332,0.0683 0.4797,0.32273 0.75595,0.37798 0.37064,0.0741 0.75596,0 1.13393,0 0.75595,0 1.51774,-0.0938 2.26786,0 0.63747,0.0797 1.25137,0.30703 1.88988,0.37797 0.75133,0.0835 1.5119,0 2.26786,0 1.88988,0 3.77976,0 5.66964,0 7.18155,0 14.36309,0 21.54464,0"
       id="path173"
       inkscape:connector-curvature="0" />
    <path
       style="fill:none;stroke:#000000;stroke-width:0.26458332px;stroke-linecap:butt;stroke-linejoin:miter;stroke-opacity:1"
       d="m 173.86905,151.47916 34.7738,4.91369"
       id="path175"
       inkscape:connector-curvature="0" />
    <path
       style="fill:none;stroke:#000000;stroke-width:0.26458332px;stroke-linecap:butt;stroke-linejoin:miter;stroke-opacity:1"
       d="m 157.99405,200.23809 40.06547,23.8125"
       id="path177"
       inkscape:connector-curvature="0" />
  </g>
</svg>
