<?xml version="1.0" encoding="UTF-8" standalone="no"?>
<!-- Created with Inkscape (http://www.inkscape.org/) -->

<svg
   xmlns:dc="http://purl.org/dc/elements/1.1/"
   xmlns:cc="http://creativecommons.org/ns#"
   xmlns:rdf="http://www.w3.org/1999/02/22-rdf-syntax-ns#"
   xmlns:svg="http://www.w3.org/2000/svg"
   xmlns="http://www.w3.org/2000/svg"
   xmlns:sodipodi="http://sodipodi.sourceforge.net/DTD/sodipodi-0.dtd"
   xmlns:inkscape="http://www.inkscape.org/namespaces/inkscape"
   width="210mm"
   height="297mm"
   viewBox="0 0 210 297"
   version="1.1"
   id="svg8"
   inkscape:version="0.92.5 (2060ec1f9f, 2020-04-08)"
   sodipodi:docname="ota joana.svg">
  <defs
     id="defs2" />
  <sodipodi:namedview
     id="base"
     pagecolor="#ffffff"
     bordercolor="#666666"
     borderopacity="1.0"
     inkscape:pageopacity="0.0"
     inkscape:pageshadow="2"
     inkscape:zoom="0.7"
     inkscape:cx="-151.34299"
     inkscape:cy="512.22906"
     inkscape:document-units="mm"
     inkscape:current-layer="g42"
     showgrid="false"
     inkscape:window-width="1920"
     inkscape:window-height="1011"
     inkscape:window-x="0"
     inkscape:window-y="0"
     inkscape:window-maximized="1" />
  <metadata
     id="metadata5">
    <rdf:RDF>
      <cc:Work
         rdf:about="">
        <dc:format>image/svg+xml</dc:format>
        <dc:type
           rdf:resource="http://purl.org/dc/dcmitype/StillImage" />
        <dc:title></dc:title>
      </cc:Work>
    </rdf:RDF>
  </metadata>
  <g
     inkscape:label="Camada 1"
     inkscape:groupmode="layer"
     id="layer1">
    <g
       id="layer1-3"
       inkscape:label="Camada 1"
       transform="matrix(0.91109793,0,0,1,13.614679,-16.509962)">
      <g
         transform="translate(89.674854,-13.399445)"
         id="g21">
        <g
           transform="matrix(5.2973578,0,0,5.2973578,393.63706,-1371.5162)"
           id="g42">
          <path
             style="fill:#b3b3b3;stroke-width:0.0623934"
             d="m -81.504483,310.41887 c 4.930207,-0.009 13.016394,-0.009 17.969301,0 4.952909,0.009 0.919104,0.016 -8.964011,0.016 -9.883117,0 -13.935497,-0.008 -9.00529,-0.016 z m -3.131184,-1.31027 c -5.19e-4,-0.23163 -0.02236,-0.45482 -0.04852,-0.49597 -0.02741,-0.0431 -0.23189,-0.0828 -0.482594,-0.0936 l -0.435029,-0.0188 v -0.46795 -0.46795 l 0.435029,-0.0188 c 0.250704,-0.0111 0.455183,-0.0504 0.482594,-0.0936 0.02616,-0.0411 0.048,-0.24908 0.04852,-0.46206 l 9.66e-4,-0.38723 0.452353,-0.0183 0.452351,-0.0183 0.0312,-0.46795 0.0312,-0.46795 0.483548,-0.0182 0.48355,-0.0182 v -0.46258 -0.4626 l 0.452352,-0.0183 0.452352,-0.0183 0.01675,-1.45066 0.01675,-1.45064 h -0.4691 -0.469101 v -0.42427 c 0,-0.2468 -0.03132,-0.4556 -0.07488,-0.49915 -0.0436,-0.0437 -0.252603,-0.0749 -0.500297,-0.0749 h -0.425426 l 0.01675,-1.44897 0.01675,-1.44899 0.405557,-0.0192 c 0.223057,-0.01 0.439897,-0.0312 0.481866,-0.0459 0.05442,-0.019 0.08126,-0.29143 0.09359,-0.94959 l 0.01728,-0.9229 0.452353,-0.0183 0.452352,-0.0183 v -3.35984 c 0,-3.00617 -0.01044,-3.36381 -0.09869,-3.3977 -0.140327,-0.0539 -0.666727,-0.0452 -0.757474,0.0124 -0.05317,0.0338 -0.0815,0.33097 -0.09359,0.98174 l -0.01734,0.9333 -0.467951,0.0312 -0.46795,0.0312 -0.01833,0.45236 -0.01833,0.45235 h -0.462624 -0.462592 l -0.01823,0.48355 -0.01823,0.48355 -0.483549,0.0182 -0.483548,0.0182 v 0.4626 0.46259 l -0.452352,0.0183 -0.452353,0.0183 -0.0312,0.46795 -0.0312,0.46794 -0.467951,0.0312 -0.46795,0.0312 -0.0312,0.46166 -0.0312,0.46166 -0.467951,0.004 -0.467951,0.004 -0.01823,-0.4821 -0.01823,-0.48209 h -0.467953 -0.46795 l 0.01823,-0.48355 0.01823,-0.48355 0.935901,-0.0312 0.935901,-0.0312 0.01833,-0.45236 0.01834,-0.45235 0.418421,-0.01 c 0.230132,-0.006 0.657077,-0.0127 0.948767,-0.0156 l 0.530344,-0.006 0.0312,-0.46795 0.0312,-0.46795 0.467951,-0.0312 0.467949,-0.0312 0.0053,-0.53035 c 0.003,-0.29169 0.01,-0.71864 0.01559,-0.94876 l 0.01022,-0.41842 0.452353,-0.0183 0.452352,-0.0183 0.0312,-0.9359 0.0312,-0.93589 0.403164,-0.0189 c 0.22174,-0.01 0.439338,-0.049 0.483549,-0.0856 0.05127,-0.0426 0.08038,-0.22156 0.08038,-0.49421 v -0.42749 l 0.9515,-0.0172 0.951499,-0.0172 0.0312,-0.46795 0.0312,-0.46795 0.452353,-0.0183 0.452351,-0.0183 0.01152,-0.29363 c 0.0063,-0.1615 0.01425,-0.36382 0.01759,-0.44962 0.0058,-0.14897 0.02701,-0.15738 0.472032,-0.18718 l 0.465953,-0.0312 0.01826,-0.44903 0.01826,-0.44902 -0.205445,-0.0339 c -0.112995,-0.0187 -0.542369,-0.0271 -0.954166,-0.019 l -0.748721,0.0149 -0.0312,-0.46795 -0.0312,-0.46794 -0.467951,-0.0312 -0.46795,-0.0312 -0.01614,-3.38323 -0.01614,-3.38321 -0.950962,-0.0172 -0.950963,-0.0172 -0.0312,-0.46795 -0.0312,-0.46794 -0.46795,-0.012 c -0.257373,-0.007 -0.685548,-0.0135 -0.9515,-0.0155 l -0.483549,-0.003 v -0.46795 c 0,-0.25737 0.02106,-0.4687 0.0468,-0.46959 0.326704,-0.0114 1.135155,-0.0161 1.463511,-0.008 l 0.418423,0.01 0.01833,0.45235 0.01834,0.45235 0.967097,0.0312 0.967098,0.0312 -0.0164,0.36137 c -0.02478,0.54615 0.02895,0.60573 0.546203,0.60573 h 0.431826 l 0.01833,0.45235 0.01834,0.45235 0.46795,0.0312 0.46795,0.0312 v 1.43505 1.43505 l -0.46795,0.0312 -0.46795,0.0312 v 0.9359 0.93589 l 0.949865,0.0172 0.949866,0.0172 0.01723,-0.95312 0.01724,-0.95311 0.467951,-0.0312 0.467951,-0.0312 0.01819,-0.48194 0.01819,-0.48194 0.948904,-0.0172 0.948903,-0.0172 v -0.43685 -0.43674 l -0.467956,-0.0312 -0.46795,-0.0312 -0.01877,-0.43503 c -0.01077,-0.2507 -0.05047,-0.45518 -0.09359,-0.48259 -0.04115,-0.0262 -0.249076,-0.048 -0.46205,-0.0485 l -0.387225,-9.5e-4 -0.01833,-0.45235 -0.01834,-0.45235 -0.467951,-0.0312 -0.46795,-0.0312 -0.01722,-0.94988 -0.01722,-0.94988 -0.949883,-0.0172 -0.949883,-0.0172 v -0.96709 -0.9671 l 0.951499,-0.0172 0.9515,-0.0172 v 0.93535 c 0,1.08423 -0.01146,1.0645 0.618207,1.0645 h 0.376837 l 0.01723,0.9515 0.01723,0.9515 0.452353,0.0183 0.452352,0.0183 9.43e-4,0.38722 c 4.96e-4,0.21297 0.02276,0.42154 0.04939,0.46348 0.03378,0.0532 0.33097,0.0815 0.981741,0.0935 l 0.933296,0.0173 0.0312,0.46795 0.0312,0.46795 h 0.436756 0.436752 l 0.0312,-0.46795 0.0312,-0.46795 h 1.435049 1.435047 l 0.0312,0.46795 0.03119,0.46795 h 0.436753 0.436753 l 0.0312,-0.46795 0.0312,-0.46795 0.948798,-0.0172 0.948798,-0.0172 0.01829,-0.45074 0.01829,-0.45075 0.467952,-0.0312 0.467949,-0.0312 0.0312,-0.9671 0.0312,-0.9671 0.392098,0.0214 c 0.535342,0.0293 0.58807,-0.024 0.573332,-0.5792 -0.0064,-0.2423 -0.0087,-0.65889 -0.005,-0.92572 l 0.0067,-0.48518 0.951501,0.0172 0.9515,0.0172 v 0.9671 0.96709 l -0.949883,0.0172 -0.949885,0.0172 -0.01722,0.94988 -0.01722,0.94989 -0.46795,0.0312 -0.467952,0.0312 -0.0312,0.46413 -0.0312,0.4641 -0.374361,-0.013 c -0.205897,-0.007 -0.40803,0.009 -0.449185,0.0368 -0.04283,0.0284 -0.08285,0.23576 -0.09359,0.48478 l -0.01877,0.43504 -0.467948,0.0312 -0.467952,0.0312 -0.01833,0.45235 -0.01833,0.45235 h 0.967205 0.967206 l 0.01823,0.48355 0.01823,0.48356 0.467951,0.0312 0.46795,0.0312 0.01724,0.95312 0.01724,0.95311 0.949867,-0.0172 0.949866,-0.0172 v -0.9359 -0.9359 l -0.467952,-0.0312 -0.467949,-0.0312 v -1.43506 -1.43505 l 0.467949,-0.0312 0.467952,-0.0312 0.01827,-0.44968 0.01827,-0.44966 0.449673,-0.0183 0.449673,-0.0182 0.0312,-0.46795 0.0312,-0.46795 0.950717,-0.0172 c 1.081435,-0.0196 0.99776,0.0315 1.029698,-0.62962 l 0.01617,-0.33486 0.935899,-0.003 0.9359,-0.003 0.01818,0.47679 0.01818,0.4768 -0.954094,0.0172 -0.954092,0.0172 -0.0312,0.46795 -0.0312,0.46795 -0.950962,0.0172 -0.950964,0.0172 -0.01613,3.38322 -0.01613,3.38323 -0.467952,0.0312 -0.467949,0.0312 -0.0312,0.46795 -0.0312,0.46795 -0.811115,-0.0132 c -1.157905,-0.0189 -1.101066,-0.0452 -1.078982,0.49866 l 0.01829,0.45049 0.452352,0.0183 0.452349,0.0183 0.01066,0.26244 c 0.0099,0.24404 0.02106,0.39732 0.04289,0.59001 0.006,0.053 0.133711,0.0783 0.398792,0.079 0.214478,4.8e-4 0.42363,0.0223 0.464784,0.0485 0.04312,0.0274 0.08277,0.2319 0.09359,0.4826 l 0.01877,0.43503 0.9359,0.0312 0.935902,0.0312 0.01877,0.43504 c 0.01077,0.2507 0.05047,0.45518 0.09359,0.48259 0.04115,0.0262 0.263614,0.048 0.494354,0.0485 l 0.419532,9.4e-4 0.01722,0.95151 0.01722,0.95149 0.45235,0.0183 0.452353,0.0183 0.0073,0.44961 c 0.004,0.24729 0.011,0.67424 0.01561,0.94878 l 0.0083,0.49915 0.467952,0.0312 0.467949,0.0312 0.01825,0.44899 c 0.02144,0.52673 0.03904,0.53981 0.688646,0.51162 0.228894,-0.01 0.604462,-0.0126 0.834593,-0.006 l 0.418424,0.0123 0.01833,0.45235 0.01833,0.45235 0.935901,0.0312 0.935901,0.0312 0.01823,0.48355 0.01823,0.48355 h -0.467871 -0.467951 l -0.01823,0.47716 -0.01823,0.47718 -0.467949,0.006 -0.467952,0.006 -0.0312,-0.46658 -0.0312,-0.46659 -0.467951,-0.0312 -0.46795,-0.0312 -0.0312,-0.46795 -0.0312,-0.46795 -0.449671,-0.0182 -0.449674,-0.0183 -0.01827,-0.44967 -0.01827,-0.44967 -0.467949,-0.0312 -0.467952,-0.0312 -0.01823,-0.48354 -0.01823,-0.48356 h -0.465325 -0.465327 l -9.43e-4,-0.38995 c -4.72e-4,-0.21447 -0.02236,-0.42363 -0.04852,-0.46478 -0.02741,-0.0431 -0.231888,-0.0828 -0.482594,-0.0936 l -0.435029,-0.0188 -0.01733,-0.9333 c -0.0121,-0.65076 -0.04042,-0.94796 -0.09359,-0.98173 -0.09075,-0.0577 -0.617147,-0.0663 -0.757473,-0.0124 -0.0883,0.0339 -0.09869,0.39152 -0.09869,3.3977 v 3.35983 l 0.452351,0.0183 0.452353,0.0183 0.01741,0.90338 c 0.0096,0.49686 0.04422,0.9302 0.07699,0.96298 0.03278,0.0328 0.249561,0.0614 0.481747,0.0638 l 0.42216,0.004 v 1.46625 1.46625 l -0.409305,-0.0207 c -0.502351,-0.0253 -0.544847,0.0159 -0.57007,0.55341 l -0.01892,0.40316 -0.452353,0.0183 -0.452352,0.0183 v 1.42564 c 0,1.6192 -0.04446,1.50138 0.566643,1.50138 h 0.369258 v 0.46533 0.46532 l 0.483548,0.0182 0.48355,0.0182 0.0312,0.46795 0.0312,0.46794 0.449671,0.0183 0.449673,0.0183 0.01827,0.44968 0.01827,0.44966 0.467952,0.0312 0.46795,0.0312 v 0.46796 0.46794 l -0.46795,0.0312 -0.467952,0.0312 -0.03119,0.46795 -0.0312,0.46795 h -0.462302 -0.462358 l 0.0056,-1.34146 c 0.0031,-0.73779 -0.008,-1.38939 -0.02455,-1.44797 -0.02417,-0.0854 -0.119046,-0.11019 -0.479136,-0.1248 l -0.448993,-0.0182 -0.0312,-0.46795 -0.03119,-0.46795 -0.467952,-0.0312 -0.46795,-0.0312 -0.01827,-0.44966 -0.01827,-0.44968 -0.449672,-0.0182 -0.449673,-0.0183 -0.0312,-0.95086 c -0.01717,-0.52298 -0.01717,-1.39337 0,-1.9342 l 0.0312,-0.98332 0.452352,-0.0183 0.452353,-0.0183 v -1.43505 -1.43505 l -0.452353,0.0183 -0.452352,0.0183 -0.0312,0.9359 -0.0312,0.93589 -0.435028,0.0188 c -4.997455,-0.47518 -5.38705,0.0507 -15.118361,0.0921 -0.0089,-0.0484 -0.174718,-0.0817 -0.46616,-0.0936 l -0.452352,-0.0183 -0.0312,-0.93591 -0.0312,-0.9359 -0.452352,-0.0183 c -0.248794,-0.01 -0.456023,0.004 -0.460508,0.0312 -0.03157,0.19167 -0.02902,2.70348 0.0028,2.75495 0.02201,0.0357 0.23578,0.0732 0.475047,0.0835 l 0.435031,0.0188 v 1.9342 1.9342 l -0.452353,0.0183 c -0.295043,0.012 -0.455424,0.0445 -0.461185,0.0936 -0.02105,0.1793 -0.0329,0.34163 -0.04289,0.58727 l -0.01066,0.26243 -0.452351,0.0183 -0.452353,0.0183 -0.0312,0.46795 -0.0312,0.46796 -0.467951,0.0312 -0.467951,0.0312 -0.01236,1.36603 c -0.0068,0.75132 -0.02698,1.40411 -0.04484,1.45065 -0.02307,0.0601 -0.159453,0.0846 -0.471183,0.0846 h -0.438686 l -9.43e-4,-0.42117 z"
             id="path31"
             inkscape:connector-curvature="0"
             sodipodi:nodetypes="csscccccccccccccccccccccccccscscccccccccsccccccccccccccccccccccccccccccccccccccccccccccccccccscccccccccccccccccccccccccccccsccccccccscccccccccccccccccccccccccccccccccccccccccsscccccccccccccccccccccccccccccccccccccccccccccccccccccccccccccccccccccccccccccccccccccccccccccccccccccccccccccccccccccccccccccccccccccccccccccccccccccccccccccccccccsccccccccccccccsscccccccccccccccccccccccccccccccccccccccccccccccccccccccccccccccccccccsccc" />
          <path
             style="fill:#ffff00;stroke-width:0.06239405"
             d="m -81.692673,292.54455 c 0.0092,-3.16818 0.0043,-3.32633 -0.105088,-3.38488 l 0.07978,-2.00982 0.951508,-0.0172 0.01834,-0.45235 0.01834,-0.45236 h 0.421545 c 0.244676,0 0.452961,-0.0315 0.496418,-0.0749 0.04356,-0.0435 0.07487,-0.25235 0.07487,-0.49915 v -0.42428 h 0.467955 0.467954 v -0.46513 -0.46513 l -0.20278,-0.0333 c -0.111529,-0.0183 -0.539708,-0.0266 -0.951509,-0.0184 l -0.748728,0.0149 c 0,0 16.440657,0.024 16.471871,-0.002 l -0.811125,-0.0133 c -1.153073,-0.0188 -1.091896,-0.0475 -1.091896,0.51085 v 0.46403 l 0.452355,0.0183 0.452362,0.0183 0.01832,0.41579 c 0.01028,0.23401 0.05227,0.44395 0.09598,0.48023 0.0427,0.0355 0.259088,0.073 0.480826,0.0834 l 0.403171,0.0189 0.01193,0.37436 c 0.0065,0.2059 0.01362,0.40874 0.01559,0.45073 0.0028,0.056 0.258194,0.081 0.955148,0.0936 -5.64e-4,5.34073 0,0 0.09032,2.01034 -0.07644,0.0765 -0.09038,0.58687 -0.09088,3.33039 -2.35e-4,1.78206 0.01804,3.27023 0.04077,3.30704 0.02278,0.0368 0.237122,0.0753 0.476389,0.0856 -0.532027,1.98515 -0.532027,1.98515 -0.532027,3.41748 v -1.43233 h -0.467953 -0.467954 l -0.0057,0.29638 c -0.0033,0.163 -0.01475,0.57714 -0.02588,0.92031 l -0.02015,0.62394 -0.410224,0.0184 c -0.316205,0.0142 -0.423788,0.0438 -0.469368,0.12894 -0.03254,0.0607 -0.05978,0.4842 -0.06055,0.94095 -9.36e-4,0.45675 -0.01893,0.84797 -0.04035,0.86937 -0.02141,0.0214 -0.222739,0.0432 -0.447425,0.0484 -0.265844,0.007 -0.427121,0.0389 -0.461805,0.0936 -0.0293,0.0462 -0.05372,0.25958 -0.05424,0.47406 l -9.35e-4,0.38996 h -0.397919 c -0.248539,0 -0.422966,0.0302 -0.464634,0.0804 -0.03668,0.0442 -0.07522,0.26181 -0.08563,0.48356 l -0.01893,0.40316 -0.435031,0.0188 c -0.250709,0.0109 -0.455189,0.0505 -0.482602,0.0936 -0.02616,0.0412 -0.04799,0.2503 -0.04852,0.46479 l -9.36e-4,0.38996 -0.421158,0.007 c -0.231635,0.005 -0.846946,0.004 -1.367355,-9.3e-4 -1.142377,-0.0104 -1.160257,-0.002 -1.136536,0.57873 l 0.0156,0.38144 -1.4154,0.0168 c -1.316435,0.0156 -1.415846,0.009 -1.421778,-0.0936 -0.03268,-0.566 -0.0699,-0.79791 -0.134335,-0.83774 -0.04177,-0.0258 -0.497484,-0.045 -1.012709,-0.0428 -0.515228,0.003 -1.126299,9.4e-4 -1.357937,-0.003 l -0.421159,-0.007 -9.36e-4,-0.38996 c -5.17e-4,-0.21448 -0.02236,-0.42363 -0.04851,-0.46479 -0.02741,-0.0431 -0.231893,-0.0827 -0.482599,-0.0936 l -0.435034,-0.0188 -0.01781,-0.40557 c -0.02187,-0.49801 -0.09037,-0.56154 -0.605414,-0.56154 h -0.380995 l 0.02124,-0.38996 c 0.02912,-0.53495 -0.01014,-0.57633 -0.542907,-0.57204 l -0.439517,0.004 -0.01073,-0.4411 c -0.0059,-0.2426 -0.0032,-0.62728 0.0062,-0.85485 0.02496,-0.61186 -0.02969,-0.67814 -0.559166,-0.67814 h -0.434564 v -0.93591 -0.93591 h -0.467954 c -0.257375,0 -0.471625,0.0211 -0.476112,0.0468 0,0 -0.03601,2.35275 -0.01339,-5.39582 z m 7.708873,-4.92511 0.01822,-0.48062 0.40556,-0.005 c 0.22306,-0.003 0.440658,-0.0266 0.483551,-0.0534 0.048,-0.03 0.078,-0.18976 0.078,-0.41531 0,-0.29569 -0.02109,-0.37242 -0.109189,-0.39727 -0.21594,-0.0609 -2.604231,-0.029 -2.682943,0.0358 -0.111664,0.092 -0.101434,0.70058 0.01338,0.79586 0.05832,0.0484 0.244547,0.0681 0.514752,0.0545 l 0.423381,-0.0213 -0.02113,0.41817 c -0.01162,0.23 -0.003,0.44759 0.01929,0.48356 0.02222,0.0359 0.220072,0.0654 0.439661,0.0654 h 0.399254 z m 3.904647,-0.0213 0.01799,-0.47076 0.403584,0.0256 c 0.264146,0.0169 0.435774,-9.3e-4 0.496757,-0.0517 0.116502,-0.0967 0.128073,-0.70435 0.01517,-0.79736 -0.049,-0.0404 -0.576564,-0.0606 -1.419467,-0.0545 l -1.341467,0.01 -0.01836,0.41782 -0.01836,0.41781 0.212023,0.0398 c 0.116619,0.0219 0.335465,0.0304 0.48633,0.0189 l 0.274299,-0.0208 -0.01804,0.34317 c -0.03189,0.60792 -0.01297,0.63245 0.47226,0.61115 l 0.419264,-0.0184 z"
             id="path29"
             inkscape:connector-curvature="0"
             sodipodi:nodetypes="ccccccscsccccccccccscccccccccccccccccccccccccccccsccccccccccccccccccccccsccccccscccsccccccscccccccscccccccccccccccccc"
             inkscape:transform-center-x="-6.047619"
             inkscape:transform-center-y="40.065476" />
          <path
             style="fill:#0e0909;stroke-width:0.06246241"
             d="m -81.484585,310.42558 c 4.93547,-0.009 13.030287,-0.009 17.988481,0 4.958196,0.009 0.920085,0.016 -8.97358,0.016 -9.893664,0 -13.950369,-0.007 -9.014901,-0.016 z m -3.134526,-1.343 c -5.2e-4,-0.21472 -0.02238,-0.42411 -0.04857,-0.46531 -0.02744,-0.0431 -0.232137,-0.0829 -0.483109,-0.0936 l -0.435493,-0.0189 -0.01835,-0.45287 -0.01835,-0.45287 h 0.381602 c 0.573954,0 0.62323,-0.0446 0.62323,-0.56438 v -0.43502 h 0.463487 0.463488 l 0.04102,-0.18675 c 0.02256,-0.10271 0.03296,-0.29828 0.02312,-0.4346 -0.02563,-0.35499 -0.02107,-0.35795 0.570389,-0.37028 l 0.37476,-0.008 v -0.46848 -0.46848 h 0.435022 c 0.350657,0 0.446227,-0.0212 0.492797,-0.10932 0.06506,-0.1231 0.07927,-2.65049 0.01548,-2.7537 -0.02259,-0.0366 -0.237054,-0.0749 -0.476576,-0.0853 l -0.435493,-0.0187 -0.01893,-0.40362 c -0.01042,-0.22198 -0.04797,-0.4386 -0.08346,-0.48137 -0.03608,-0.0435 -0.245322,-0.0858 -0.474759,-0.096 l -0.410241,-0.0185 -1.9e-5,-1.40546 -1.8e-5,-1.40546 0.397631,-0.0188 c 0.218698,-0.0104 0.433843,-0.049 0.478101,-0.0857 0.05883,-0.0488 0.08047,-0.30835 0.08047,-0.96488 v -0.8981 h 0.468449 0.468451 v 0.39354 c 0,0.22279 0.03252,0.42604 0.07495,0.46847 0.0436,0.0436 0.252616,0.075 0.49968,0.075 h 0.424728 v 0.46848 0.46849 h -0.378866 c -0.64364,0 -0.609809,-0.0827 -0.612843,1.49775 -0.003,1.56604 -0.02019,1.5186 0.543011,1.49943 0.160901,-0.005 0.328088,-0.008 0.371526,-0.005 0.06222,0.005 0.07547,0.41323 0.06246,1.92635 l -0.01652,1.9208 -0.35319,-0.021 c -0.543601,-0.0323 -0.61494,0.0319 -0.61494,0.55414 v 0.43508 h -0.465823 -0.465822 l -0.01824,0.48409 -0.01824,0.4841 -0.484065,0.0183 -0.484066,0.0181 v 1.43406 1.43406 h -0.468447 -0.46845 l -9.34e-4,-0.3904 z m 23.356164,-0.0624 c -0.0026,-0.24909 -0.0097,-0.88856 -0.0156,-1.42108 l -0.01079,-0.96821 -0.46845,-0.0312 -0.468451,-0.0312 -0.01825,-0.48412 -0.01825,-0.4841 h -0.465821 -0.465825 v -0.40165 c 0,-0.52709 -0.07077,-0.59786 -0.597831,-0.59786 h -0.401528 v -1.90519 -1.90517 h 0.401528 c 0.266686,0 0.431813,-0.0303 0.491706,-0.0902 0.132719,-0.13273 0.132719,-2.68522 0,-2.81795 -0.05989,-0.0598 -0.22502,-0.0902 -0.491706,-0.0902 h -0.401528 v -0.4685 -0.46848 h 0.435022 c 0.514716,0 0.564337,-0.0519 0.564337,-0.58931 v -0.34766 h 0.468451 0.46845 v 0.93578 c 0,1.06657 -0.05056,0.98357 0.618681,1.01566 l 0.33761,0.0162 v 1.40546 1.40546 l -0.33761,0.0162 c -0.623367,0.0299 -0.61083,0.0195 -0.631571,0.53088 l -0.01834,0.45237 -0.435494,0.0189 c -0.239521,0.0104 -0.45398,0.0487 -0.476574,0.0853 -0.06379,0.10321 -0.04958,2.63061 0.01549,2.7537 0.04657,0.0881 0.142139,0.10931 0.492797,0.10931 h 0.435021 v 0.4685 c 0,0.52518 -0.04847,0.4858 0.577756,0.46917 0.388206,-0.0103 0.379366,-0.0198 0.360374,0.39036 -0.006,0.12918 0.0076,0.31893 0.03014,0.42164 l 0.04102,0.18675 h 0.463486 0.463487 v 0.43505 c 0,0.50893 0.06913,0.57964 0.550663,0.56325 0.160902,-0.005 0.328912,-0.008 0.37336,-0.005 0.05999,0.004 0.07608,0.12226 0.06246,0.45842 l -0.01834,0.45287 -0.468449,0.0312 -0.468451,0.0312 -0.01834,0.45286 -0.01834,0.45287 h -0.465701 -0.465715 l -0.0048,-0.45287 z m -12.250262,-6.34298 -0.418927,-0.0183 -0.0183,-0.45009 -0.0183,-0.45006 -0.437219,-0.0312 -0.437222,-0.0312 -0.03123,-0.46849 c -0.01718,-0.25766 -0.02122,-0.68632 -0.009,-0.95258 l 0.02224,-0.48409 h 0.386885 c 0.21763,0 0.419674,-0.0328 0.461836,-0.075 0.04207,-0.042 0.07495,-0.24375 0.07495,-0.45978 v -0.38482 l 0.327914,-0.0394 c 0.60235,-0.0723 2.451091,-0.0472 2.532755,0.0345 0.04216,0.0422 0.07495,0.24421 0.07495,0.46179 0,0.4484 0.01731,0.46269 0.560635,0.46269 h 0.363039 l 0.02224,0.48409 c 0.01223,0.26626 0.0082,0.69493 -0.009,0.95259 l -0.03123,0.46849 -0.43722,0.0312 -0.437219,0.0312 -0.01891,0.40601 c -0.01041,0.22331 -0.03984,0.42702 -0.06542,0.4527 -0.04927,0.0495 -1.75158,0.0909 -2.458239,0.0599 z m -5.252924,-0.98985 c -0.02379,-0.0237 -0.04324,-0.2323 -0.04324,-0.4634 0,-0.48644 -0.01092,-0.49599 -0.567249,-0.49599 h -0.369652 v -0.46849 -0.46847 h 0.974264 0.974262 l -0.04103,0.35916 c -0.05874,0.5142 0.02519,0.60904 0.539033,0.60904 h 0.395406 v 0.46848 0.46849 l -0.909274,0.0173 c -0.500101,0.01 -0.928732,-0.002 -0.952515,-0.026 z m 10.725934,-0.0446 c -0.01787,-0.0466 -0.02401,-0.2644 -0.01364,-0.48409 l 0.01884,-0.39945 0.24984,0.0163 c 0.137412,0.009 0.334162,-0.007 0.43722,-0.0354 0.180831,-0.0499 0.188471,-0.0668 0.21861,-0.48479 l 0.03123,-0.43305 0.952517,-0.0171 0.952513,-0.0172 v 0.47013 0.4701 h -0.401528 c -0.515847,0 -0.613024,0.0857 -0.595228,0.52495 0.0071,0.17509 0.0094,0.35347 0.0051,0.39641 -0.01171,0.11785 -1.810198,0.11148 -1.855495,-0.006 z m -8.79376,-4.83723 c -0.01687,-0.0273 -0.02556,-0.22499 -0.0193,-0.43932 0.01376,-0.47137 -0.02732,-0.5082 -0.568006,-0.50953 l -0.392001,-7.7e-4 0.01724,-0.9526 0.01725,-0.95259 0.399071,-0.005 c 0.51349,-0.006 0.589012,-0.092 0.531278,-0.60242 l -0.04081,-0.36077 h 0.976197 0.976199 l 0.0097,0.17178 c 0.0054,0.0945 0.0035,0.23989 -0.004,0.32313 -0.03501,0.38472 0.0215,0.43514 0.510144,0.45495 l 0.452332,0.0183 v 0.93696 0.93698 l -0.416551,0.0312 c -0.229103,0.0172 -0.439072,0.0538 -0.466598,0.0814 -0.02752,0.0276 -0.06108,0.24545 -0.07456,0.4841 l -0.02452,0.4339 h -0.926165 c -0.509391,0 -0.939971,-0.0224 -0.956843,-0.0496 z m 6.830489,-0.34078 c -4.72e-4,-0.21471 -0.02758,-0.43256 -0.06011,-0.48409 -0.03933,-0.0623 -0.201263,-0.10417 -0.483109,-0.12493 l -0.423947,-0.0312 v -0.93698 -0.93696 l 0.452835,-0.0183 c 0.295417,-0.012 0.45588,-0.0445 0.461596,-0.0937 0.0048,-0.0414 0.01185,-0.244 0.01563,-0.45013 l 0.0069,-0.37479 0.952514,-0.0172 0.952516,-0.0171 v 0.36448 c 0,0.49777 0.06643,0.56737 0.562141,0.58915 l 0.405989,0.0178 0.01723,0.95257 0.01723,0.95261 -0.391999,7.7e-4 c -0.215603,4.7e-4 -0.433153,0.027 -0.483444,0.0589 -0.06168,0.039 -0.09955,0.20136 -0.116354,0.49877 l -0.02492,0.44091 h -0.929851 -0.929851 l -9.35e-4,-0.39041 z m -18.493257,-0.65587 c -0.0033,-0.0258 -0.0012,-0.15254 0.0048,-0.28173 0.006,-0.12919 -0.0073,-0.31773 -0.02956,-0.419 -0.03968,-0.18069 -0.04872,-0.18443 -0.488887,-0.20236 l -0.448454,-0.0184 -0.01835,-0.45285 -0.01835,-0.45288 0.424342,-0.0123 c 0.233387,-0.007 0.611134,-0.004 0.839437,0.005 0.6123,0.0265 0.677954,-0.0275 0.677954,-0.55778 v -0.43505 l 0.452835,-0.008 c 0.24906,-0.005 0.683485,-0.002 0.96539,0.006 l 0.512556,0.0143 0.01835,-0.49033 0.01835,-0.49032 0.490289,-0.0184 0.490288,-0.0183 -0.01433,-0.5126 c -0.0079,-0.28193 -0.01068,-0.71639 -0.0062,-0.96547 l 0.0081,-0.45287 h 0.46562 0.465619 l 0.03871,-0.20635 c 0.02129,-0.11349 0.0307,-0.35945 0.0209,-0.54657 -0.0098,-0.1871 -0.01189,-0.52872 -0.0047,-0.75911 l 0.01316,-0.4189 0.452834,-0.0185 0.452836,-0.0183 0.03123,-0.46849 0.03123,-0.46849 0.81198,-0.018 c 1.144768,-0.0254 1.102433,-0.0452 1.080134,0.50399 l -0.01831,0.45101 -0.435493,0.0188 c -0.250971,0.0108 -0.455668,0.0505 -0.483109,0.0937 -0.02619,0.0412 -0.04805,0.24936 -0.04857,0.46258 l -9.35e-4,0.38767 -0.452834,0.0185 -0.452835,0.0183 -0.03123,0.96821 -0.03123,0.96821 -0.353191,-0.021 c -0.5436,-0.0323 -0.614939,0.032 -0.614939,0.55416 v 0.43505 h -0.463487 -0.463488 l -0.04101,0.18676 c -0.02256,0.10271 -0.03297,0.29828 -0.02312,0.43459 0.02231,0.30901 -0.01485,0.34619 -0.323848,0.32386 -0.1363,-0.01 -0.331852,4.8e-4 -0.434559,0.0231 l -0.186741,0.041 v 0.46353 0.46352 h -0.43503 c -0.522146,0 -0.586428,0.0713 -0.554108,0.61499 l 0.021,0.35322 -0.484065,0.0181 -0.484065,0.0182 v 0.46585 0.46587 h -0.468449 c -0.257648,0 -0.471174,-0.0212 -0.474502,-0.0469 z m 31.098254,-0.40602 -0.01834,-0.45287 -0.452835,-0.0183 c -0.297734,-0.0121 -0.454736,-0.0441 -0.458386,-0.0937 -0.003,-0.0414 -0.0012,-0.20701 0.0044,-0.36793 0.0164,-0.48156 -0.05431,-0.5507 -0.563197,-0.5507 h -0.435022 v -0.46352 -0.46353 l -0.186743,-0.041 c -0.102706,-0.0226 -0.293212,-0.0333 -0.423345,-0.0239 -0.352568,0.0255 -0.389274,-0.0227 -0.389274,-0.51083 V 291.983 h -0.468449 -0.468451 v -0.43506 c 0,-0.50893 -0.06913,-0.57964 -0.55066,-0.56324 -0.160903,0.005 -0.327683,0.008 -0.370624,0.005 -0.05872,-0.004 -0.07807,-0.23621 -0.07807,-0.93584 0,-1.06036 0.03058,-1.00612 -0.567249,-1.00612 h -0.369652 v -0.36285 c 0,-0.49605 -0.06671,-0.56577 -0.56214,-0.58752 l -0.405989,-0.0178 -0.01832,-0.451 c -0.02231,-0.54916 -0.06464,-0.52941 1.080135,-0.504 l 0.811979,0.0181 0.03123,0.46849 0.03123,0.46849 0.461223,0.0312 0.461223,0.0312 -0.0044,0.71835 c -0.0025,0.39509 0.01029,0.82376 0.02833,0.95259 l 0.03281,0.23425 h 0.462959 0.46296 v 0.96556 0.96559 l 0.484065,0.0182 0.484064,0.0181 0.03123,0.46848 0.03123,0.46849 0.499679,0.008 c 0.274825,0.005 0.703456,0.0116 0.952516,0.0156 l 0.452833,0.007 v 0.46352 c 0,0.45585 0.0028,0.46408 0.171764,0.49722 0.09447,0.0186 0.523104,0.0291 0.952516,0.0234 l 0.780751,-0.0103 v 0.46561 0.46561 l -0.435493,0.0187 c -0.250972,0.0108 -0.455669,0.0505 -0.48311,0.0937 -0.02619,0.0412 -0.04805,0.2506 -0.04857,0.46531 l -9.35e-4,0.39042 h -0.465759 -0.465715 z m -21.371533,-3.5605 c -0.02072,-0.0773 -0.03805,-0.27477 -0.03852,-0.4388 -7.55e-4,-0.26231 -0.02016,-0.3056 -0.161068,-0.35917 -0.08812,-0.0335 -0.295946,-0.0609 -0.461837,-0.0609 h -0.30162 l -0.02223,-0.48411 c -0.01222,-0.26626 -0.0082,-0.69492 0.009,-0.95259 l 0.03123,-0.46849 0.281256,0.0199 c 0.154691,0.011 0.357155,-0.009 0.449921,-0.0442 0.15746,-0.0599 0.169895,-0.0923 0.187194,-0.48842 l 0.01853,-0.4243 0.952515,-0.0172 0.952515,-0.0172 v 0.44042 c 0,0.42209 0.0071,0.44313 0.17033,0.5052 0.09368,0.0356 0.283405,0.0603 0.421606,0.0551 0.138201,-0.005 0.286408,-0.007 0.329349,-0.004 0.0587,0.005 0.07808,0.23651 0.07808,0.93572 v 0.92992 l -0.440888,0.0249 c -0.297378,0.0168 -0.459714,0.0547 -0.498723,0.11635 -0.03181,0.0503 -0.05827,0.26713 -0.05879,0.48186 l -9.35e-4,0.39041 h -0.929615 c -0.911247,0 -0.930359,-0.003 -0.967277,-0.14054 z m 10.702796,-0.24986 c -4.72e-4,-0.21472 -0.02699,-0.43156 -0.05879,-0.48185 -0.03905,-0.0618 -0.20161,-0.0996 -0.500314,-0.11646 l -0.442476,-0.025 0.01721,-0.94546 0.01721,-0.94544 h 0.423879 c 0.508408,0 0.541968,-0.0358 0.543295,-0.57943 l 9.34e-4,-0.39204 0.952516,0.0172 0.952514,0.0171 -0.01778,0.34427 c -0.0258,0.4996 0.06204,0.59271 0.559276,0.59271 h 0.395405 l 0.03123,0.49972 c 0.01718,0.27484 0.02113,0.70351 0.0088,0.95258 l -0.02245,0.45287 h -0.355994 c -0.4719,0 -0.567067,0.0774 -0.575868,0.46849 -0.01277,0.56774 0.05617,0.53095 -0.994952,0.53095 h -0.932691 l -9.34e-4,-0.39041 z m -5.445999,-0.59621 -0.418927,-0.0186 -0.0183,-0.45008 -0.0183,-0.45008 -0.437219,-0.0312 -0.437222,-0.0312 -0.03123,-0.46848 c -0.01718,-0.25767 -0.02122,-0.68634 -0.009,-0.95259 l 0.02224,-0.48411 h 0.386885 c 0.21763,0 0.419674,-0.0328 0.461836,-0.075 0.04351,-0.0435 0.07495,-0.25203 0.07495,-0.49699 v -0.42203 l 0.452836,-0.0183 0.452835,-0.0184 0.01834,-0.45288 0.01834,-0.45286 -1.48616,-0.0111 c -1.814984,-0.0135 -2.239591,-0.0271 -2.315291,-0.0739 -0.03221,-0.0199 -0.04537,-0.17349 -0.02925,-0.34127 0.05346,-0.55646 0.02397,-0.57317 -1.010935,-0.57317 -1.021918,0 -0.972616,0.0286 -0.972616,-0.56308 0,-0.43028 -0.04021,-0.45725 -0.64599,-0.43315 -0.21153,0.008 -0.587145,0.0111 -0.834699,0.006 l -0.450099,-0.009 -0.01835,-0.45286 -0.01835,-0.45288 -0.452835,-0.0183 c -0.298229,-0.0121 -0.454493,-0.0441 -0.457693,-0.0937 -0.0026,-0.0414 -0.0065,-1.54154 -0.0085,-3.33354 -0.0019,-1.79201 -0.02671,-3.29558 -0.05494,-3.34126 -0.03842,-0.0621 -0.272005,-0.0847 -0.929192,-0.0896 -0.48283,-0.004 -0.897463,-0.0262 -0.921407,-0.0502 -0.02394,-0.024 -0.03548,-0.15505 -0.02564,-0.29137 0.0098,-0.13631 -3.79e-4,-0.33116 -0.02277,-0.43299 l -0.04066,-0.18515 -0.947904,-0.0172 -0.947904,-0.0171 -0.01822,-0.44614 -0.01822,-0.44613 0.486665,-0.0223 c 0.267666,-0.0123 0.704495,-0.0131 0.97073,-0.002 l 0.484066,0.0206 v 0.46355 0.46355 h 0.965503 0.965503 l 0.01824,0.4841 0.01824,0.48411 0.484066,0.0182 0.484064,0.0181 v 0.46091 0.46089 l 0.186742,0.041 c 0.102707,0.0226 0.298259,0.0329 0.434559,0.0231 0.1363,-0.01 0.26527,-4.8e-4 0.2866,0.0208 0.0354,0.0354 0.05627,1.41248 0.03692,2.43638 l -0.0079,0.41889 -0.452835,0.0185 -0.452834,0.0183 -0.01735,0.93221 c -0.01234,0.66316 0.0038,0.94532 0.05604,0.97758 0.09359,0.0579 1.699709,0.0598 1.792938,0.002 0.0452,-0.028 0.07604,-0.37335 0.08727,-0.97756 l 0.01736,-0.93437 0.484065,-0.0182 0.484066,-0.0182 v -0.46587 -0.46584 l 0.421604,-0.0123 c 0.231883,-0.007 0.609082,-0.004 0.838222,0.005 0.666471,0.0289 0.684988,0.0146 0.663453,-0.51388 l -0.01825,-0.44782 -0.452835,-0.0183 -0.452835,-0.0185 v -0.37616 c 0,-0.56811 -0.04539,-0.61781 -0.564337,-0.61781 h -0.435023 v -0.46564 -0.46567 l -0.218199,-0.0409 c -0.12001,-0.0225 -0.291043,-0.0227 -0.380072,-2.5e-4 -0.08903,0.0224 -0.215696,0.0235 -0.281481,0.002 -0.110771,-0.0352 -0.119608,-0.10657 -0.119608,-0.96652 0,-1.07513 0.0348,-1.02404 -0.677805,-0.99492 -0.228385,0.009 -0.604968,0.0121 -0.83685,0.006 l -0.421605,-0.0108 v -0.93036 -0.93036 l 0.484065,-0.0223 c 0.266236,-0.0122 0.701174,-0.013 0.966529,-0.002 l 0.482465,0.0205 0.01721,0.94769 0.01722,0.94773 0.462027,0.0312 0.462028,0.0312 0.01267,0.8745 c 0.0069,0.48099 0.01688,0.90966 0.02203,0.9526 0.0065,0.0546 0.149703,0.0781 0.477824,0.0781 h 0.46845 v 0.43506 c 0,0.35465 0.02073,0.44615 0.112176,0.4951 0.06169,0.033 0.504382,0.0566 0.983745,0.0524 l 0.87157,-0.008 -0.02106,0.29122 c -0.01157,0.16017 -0.0023,0.37652 0.02058,0.48078 l 0.04164,0.18957 h 0.463486 0.463487 v -0.46848 -0.4685 l 0.421605,-0.008 c 0.372046,-0.007 2.344731,-0.003 2.467171,0.005 0.02576,0.002 0.04685,0.2139 0.04685,0.47158 v 0.46848 h 0.46726 c 0.448966,0 0.468829,-0.006 0.507301,-0.15955 0.02203,-0.0877 0.02668,-0.29856 0.01036,-0.46848 -0.01919,-0.1998 -0.0054,-0.31091 0.03923,-0.31454 0.0379,-0.003 0.434299,-0.006 0.880888,-0.006 0.446589,-4.8e-4 0.861167,-0.027 0.921284,-0.059 0.08806,-0.047 0.109305,-0.14291 0.109305,-0.49339 v -0.43505 h 0.468451 0.468449 v -0.96558 -0.96559 l 0.484065,-0.0182 0.484064,-0.0182 0.01721,-0.94465 0.01721,-0.94466 0.482484,-0.0268 c 0.265363,-0.0147 0.700309,-0.0152 0.966545,-0.002 l 0.484065,0.0256 v 0.93013 0.93015 l -0.421605,0.0101 c -0.231884,0.005 -0.634588,0.002 -0.894902,-0.006 -0.66839,-0.0232 -0.669721,-0.0212 -0.669721,1.02095 0,0.83531 -0.02717,1.01103 -0.145062,0.93818 -0.03381,-0.0209 -0.228617,-0.0187 -0.432904,0.005 l -0.371427,0.0431 v 0.46234 0.46237 h -0.435021 c -0.518947,0 -0.564338,0.0497 -0.564338,0.6178 v 0.37616 l -0.452835,0.0183 -0.452836,0.0183 -0.01825,0.44783 c -0.02153,0.52846 -0.003,0.54281 0.663454,0.51388 0.229138,-0.01 0.606338,-0.0125 0.83822,-0.005 l 0.421606,0.0123 v 0.4685 0.46848 h 0.468451 0.468449 l 0.01166,0.42163 c 0.0064,0.23191 0.0036,0.63468 -0.0062,0.89506 -0.02517,0.66659 -0.01686,0.6723 0.977558,0.66967 0.438407,-0.002 0.847037,-0.0283 0.908065,-0.0603 0.09989,-0.0524 0.109234,-0.14983 0.09369,-0.97649 l -0.01725,-0.91828 -0.452836,-0.0183 -0.452836,-0.0183 -0.008,-0.4189 c -0.0044,-0.23039 -0.0083,-0.88269 -0.0087,-1.44956 l -7.07e-4,-1.03068 0.346262,0.0209 c 0.536084,0.0325 0.60801,-0.033 0.60801,-0.55415 v -0.43505 h 0.46424 c 0.539704,0 0.560065,-0.0238 0.525011,-0.61313 l -0.02113,-0.35507 0.96813,-0.0312 0.968129,-0.0312 0.01834,-0.45287 0.01834,-0.45286 h 0.96813 0.968129 l -0.01834,0.45286 -0.01834,0.45287 -0.947903,0.0172 -0.947904,0.0171 -0.04066,0.18515 c -0.02235,0.10185 -0.03261,0.29669 -0.02278,0.433 0.0098,0.13632 -6.2e-5,0.26581 -0.02203,0.28777 -0.02196,0.022 -0.42984,0.0462 -0.9064,0.0538 -0.476559,0.008 -0.896603,0.0325 -0.933428,0.0554 -0.04622,0.0286 -0.06774,1.06248 -0.06947,3.33755 -0.0014,1.81291 -0.0049,3.33134 -0.0078,3.37428 -0.0037,0.055 -0.143513,0.0781 -0.473789,0.0781 h -0.468449 v 0.46848 0.46849 l -0.452835,0.008 c -0.24906,0.005 -0.668196,0.002 -0.931416,-0.006 -0.57018,-0.0172 -0.614469,0.0273 -0.614469,0.61831 v 0.37889 h -0.903473 c -1.040634,0 -1.032787,-0.005 -1.032787,0.58005 v 0.33841 l -0.515294,0.0401 c -0.283413,0.022 -1.13767,0.0403 -1.89835,0.0405 -1.203318,2.4e-4 -1.387979,0.0132 -1.420965,0.0992 -0.06592,0.17181 -0.04101,0.68517 0.03704,0.76321 0.0436,0.0436 0.252615,0.075 0.49968,0.075 h 0.424729 v 0.43879 c 0,0.41355 0.0092,0.44231 0.160216,0.49972 0.08812,0.0335 0.295945,0.0609 0.461837,0.0609 h 0.301621 l 0.02224,0.4841 c 0.01223,0.26626 0.0082,0.69493 -0.009,0.95259 l -0.03123,0.46849 -0.43722,0.0312 -0.437219,0.0312 -0.01891,0.40602 c -0.01041,0.22332 -0.03984,0.42703 -0.06541,0.4527 -0.04927,0.0494 -1.75158,0.0909 -2.45824,0.0598 z m -3.441151,-7.808 c 0.04316,-0.0274 0.08286,-0.23216 0.09369,-0.48314 l 0.01879,-0.43553 0.936901,-0.0312 0.9369,-0.0312 0.01723,-0.94999 0.01723,-0.94998 0.482453,-0.0183 0.482452,-0.0181 v -0.43726 -0.43725 h -0.936894 -0.9369 l -0.01835,0.45287 -0.01835,0.45287 -0.481328,0.004 c -0.264732,0.002 -0.692132,0.009 -0.949779,0.0156 l -0.468451,0.012 -0.01684,1.40101 c -0.01297,1.07914 0.0014,1.41257 0.06246,1.45135 0.100623,0.0638 0.679434,0.0659 0.778804,0.002 z m 9.756138,-0.0364 c 0.04988,-0.0601 0.06627,-0.49706 0.05449,-1.45232 l -0.01686,-1.36633 -0.468449,-0.012 c -0.257648,-0.006 -0.685049,-0.0136 -0.94978,-0.0156 l -0.481329,-0.004 -0.01834,-0.45286 -0.01834,-0.45287 h -0.936901 -0.9369 v 0.43725 0.43725 l 0.468449,0.0312 0.468451,0.0312 0.03123,0.93697 0.03123,0.93698 0.9369,0.0312 0.9369,0.0312 0.01879,0.43553 c 0.01084,0.25099 0.05052,0.4557 0.09369,0.48315 0.130471,0.0829 0.709988,0.056 0.786786,-0.0364 z m -5.81525,-4.3022 -0.01834,-0.45287 h -0.437219 -0.437222 l -0.01898,0.36781 c -0.02746,0.53196 -0.02202,0.53793 0.488216,0.53793 h 0.441917 z m 1.973686,0.35407 c 0.02084,-0.0543 0.03792,-0.2207 0.03792,-0.36968 0,-0.44173 -0.02642,-0.46848 -0.462642,-0.46848 -0.217575,0 -0.419609,0.0328 -0.461768,0.075 -0.07805,0.0781 -0.102964,0.5914 -0.03704,0.76321 0.055,0.14333 0.868539,0.14333 0.923536,0 z"
             id="path23"
             inkscape:connector-curvature="0" />
        </g>
      </g>
    </g>
  </g>
</svg>
