<?xml version="1.0" encoding="UTF-8" standalone="no"?>
<!-- Created with Inkscape (http://www.inkscape.org/) -->

<svg
   width="210mm"
   height="297mm"
   viewBox="0 0 210 297"
   version="1.1"
   id="svg1"
   inkscape:version="1.3.2 (091e20e, 2023-11-25)"
   sodipodi:docname="logo_shell.svg"
   xmlns:inkscape="http://www.inkscape.org/namespaces/inkscape"
   xmlns:sodipodi="http://sodipodi.sourceforge.net/DTD/sodipodi-0.dtd"
   xmlns="http://www.w3.org/2000/svg"
   xmlns:svg="http://www.w3.org/2000/svg">
  <sodipodi:namedview
     id="namedview1"
     pagecolor="#ffffff"
     bordercolor="#000000"
     borderopacity="0.25"
     inkscape:showpageshadow="2"
     inkscape:pageopacity="0.0"
     inkscape:pagecheckerboard="0"
     inkscape:deskcolor="#d1d1d1"
     inkscape:document-units="mm"
     inkscape:zoom="0.47584683"
     inkscape:cx="398.23739"
     inkscape:cy="561.10493"
     inkscape:window-width="1440"
     inkscape:window-height="847"
     inkscape:window-x="0"
     inkscape:window-y="25"
     inkscape:window-maximized="0"
     inkscape:current-layer="layer1" />
  <defs
     id="defs1" />
  <g
     inkscape:label="Layer 1"
     inkscape:groupmode="layer"
     id="layer1">
    <g
       id="g33660"
       transform="matrix(0.33721389,0,0,0.31127436,75,120)">
      <path
         fill-rule="evenodd"
         clip-rule="evenodd"
         fill="#ffffff"
         d="M 0,0 H 192.756 V 192.756 H 0 Z"
         id="path33642" />
      <path
         d="m 169.244,53.73 a 88.642,88.642 0 0 1 8.029,14.873 c 0,0.001 0.002,-0.002 0.004,-10e-4 a 85.782,85.782 0 0 1 5.221,16.675 87.406,87.406 0 0 1 1.754,17.493 87.02,87.02 0 0 1 -0.455,8.746 101.398,101.398 0 0 1 -1.303,8.873 l -0.203,1.062 -26.066,18.879 -4.217,33.533 h -44.971 l -1.635,1.09 a 13.974,13.974 0 0 1 -4.189,2.229 h -0.01 c -1.531,0.504 -3.139,0.746 -4.825,0.746 -1.721,0 -3.327,-0.242 -4.857,-0.746 H 91.51 c -1.468,-0.482 -2.841,-1.207 -4.156,-2.186 l -1.84,-1.133 H 40.958 L 36.674,140.336 10.472,121.451 10.261,120.41 A 88.197,88.197 0 0 1 8.935,111.504 89.379,89.379 0 0 1 8.504,102.77 c 0,-5.92 0.577,-11.742 1.728,-17.444 A 87.18,87.18 0 0 1 15.414,68.613 88.862,88.862 0 0 1 23.443,53.701 86.85,86.85 0 0 1 34.212,40.602 87.391,87.391 0 0 1 47.229,29.891 89.442,89.442 0 0 1 62.146,21.804 c 5.496,-2.34 11.082,-4.086 16.772,-5.242 a 87.41,87.41 0 0 1 17.46,-1.733 c 5.903,0 11.737,0.582 17.493,1.753 a 86.827,86.827 0 0 1 16.74,5.222 88.484,88.484 0 0 1 14.855,8.061 c 4.656,3.141 9,6.722 13.012,10.737 0.004,0.002 -0.002,0.008 0,0.01 a 89.414,89.414 0 0 1 10.766,13.118 z"
         fill="#ffffff"
         id="path33644" />
      <path
         d="M 174.77,69.668 C 170.444,59.443 164.348,50.397 156.549,42.532 148.748,34.732 139.703,28.636 129.543,24.31 118.926,19.788 107.848,17.559 96.378,17.559 c -11.536,0 -22.547,2.229 -33.166,6.751 -10.16,4.326 -19.271,10.422 -27.07,18.222 -7.865,7.865 -13.896,16.911 -18.222,27.136 -4.457,10.553 -6.685,21.63 -6.685,33.101 0,5.637 0.524,11.273 1.704,17.107 l 26.283,18.941 4.129,32.314 h 42.932 l 2.556,1.572 c 2.229,1.705 4.654,2.49 7.538,2.49 2.819,0 5.31,-0.785 7.472,-2.49 l 2.359,-1.572 H 149.6 l 4.064,-32.314 26.152,-18.941 c 1.115,-5.834 1.705,-11.471 1.705,-17.107 0,-11.471 -2.228,-22.548 -6.751,-33.101 z"
         fill-rule="evenodd"
         clip-rule="evenodd"
         fill="#cc2229"
         id="path33646" />
      <path
         d="m 162.186,79.369 c -1.705,-7.21 -5.375,-13.372 -11.078,-18.353 L 111.192,129.773 146.52,54.396 C 141.801,48.169 135.836,43.909 128.299,41.483 l -24.449,85.471 17.895,-88.945 c -5.572,-3.081 -11.471,-4.654 -17.764,-4.654 l -3.998,0.262 -3.539,92.549 -3.736,-92.549 -3.933,-0.262 c -6.292,0 -12.257,1.573 -17.763,4.654 L 88.709,126.954 64.458,41.484 C 56.92,43.91 50.825,48.17 46.237,54.397 L 81.762,129.774 41.648,61.017 C 35.946,65.998 32.275,72.16 30.571,79.37 L 75.273,134.296 29.26,88.086 c -2.098,4.72 -3.146,9.636 -3.146,14.683 0,2.818 0.328,5.832 1.114,9.045 l 25.825,18.877 3.409,25.365 h 31.396 l 4.457,3.408 c 1.246,0.852 2.557,1.246 4.064,1.311 1.442,-0.064 2.819,-0.459 3.933,-1.311 l 4.719,-3.408 h 31.527 l 3.213,-25.365 25.758,-18.877 c 0.721,-3.213 1.115,-6.227 1.115,-9.045 0,-5.047 -1.115,-9.963 -3.146,-14.683 l -45.75,46.208 z"
         fill-rule="evenodd"
         clip-rule="evenodd"
         fill="#f6d330"
         id="path33648" />
    </g>
  </g>
</svg>
