<?xml version="1.0" encoding="UTF-8" standalone="no"?>
<!-- Created with Inkscape (http://www.inkscape.org/) -->

<svg
   width="210mm"
   height="297mm"
   viewBox="0 0 210 297"
   version="1.1"
   id="svg1"
   inkscape:version="1.3.2 (091e20e, 2023-11-25)"
   sodipodi:docname="logo_pepsi.svg"
   xmlns:inkscape="http://www.inkscape.org/namespaces/inkscape"
   xmlns:sodipodi="http://sodipodi.sourceforge.net/DTD/sodipodi-0.dtd"
   xmlns="http://www.w3.org/2000/svg"
   xmlns:svg="http://www.w3.org/2000/svg">
  <sodipodi:namedview
     id="namedview1"
     pagecolor="#ffffff"
     bordercolor="#000000"
     borderopacity="0.25"
     inkscape:showpageshadow="2"
     inkscape:pageopacity="0.0"
     inkscape:pagecheckerboard="0"
     inkscape:deskcolor="#d1d1d1"
     inkscape:document-units="mm"
     inkscape:zoom="0.2102413"
     inkscape:cx="397.16269"
     inkscape:cy="561.25984"
     inkscape:window-width="1440"
     inkscape:window-height="847"
     inkscape:window-x="0"
     inkscape:window-y="25"
     inkscape:window-maximized="1"
     inkscape:current-layer="layer1" />
  <defs
     id="defs1" />
  <g
     inkscape:label="Layer 1"
     inkscape:groupmode="layer"
     id="layer1">
    <g
       id="g33640"
       transform="matrix(0.41128081,0,0,0.37948831,119.409,47.053182)">
      <g
         id="g2"
         transform="translate(-234.08584,231.93071)">
        <path
           d="m 205.13139,141.39754 c -43.17614,0 -78.30317,-35.14143 -78.30317,-78.331968 0,-43.194853 35.12703,-78.334843 78.30317,-78.334843 43.17471,0 78.3003,35.141429 78.3003,78.334843 0,43.190538 -35.12559,78.331968 -78.3003,78.331968 z"
           fill="#ffffff"
           id="path33613"
           style="stroke-width:1.4394" />
        <path
           d="m 205.13139,-14.551012 c 42.84508,0 77.5806,34.748474 77.5806,77.615145 0,42.866667 -34.73552,77.613707 -77.5806,77.613707 -42.84796,0 -77.58347,-34.74848 -77.58347,-77.613707 0,-42.865232 34.73551,-77.615145 77.58347,-77.615145 m 0,-1.439397 c -43.57341,0 -79.02287,35.463854 -79.02287,79.054542 0,43.592127 35.44946,79.053097 79.02287,79.053097 43.57198,0 79.02,-35.46529 79.02,-79.053097 0,-43.590688 -35.44802,-79.054542 -79.02,-79.054542 z"
           fill="#004883"
           id="path33615"
           style="stroke-width:1.4394" />
        <g
           id="g33625">
          <path
             d="m 249.4936,4.253265 a 19.057611,19.057611 0 0 1 -1.89425,-1.640912 73.494153,73.494153 0 0 0 -42.46796,-13.436767 c -40.78818,0 -73.854,33.080213 -73.854,73.887108 a 73.613623,73.613623 0 0 0 14.6142,44.127586 c 24.71444,-7.297749 46.2766,-19.994659 64.75557,-38.34553 18.45595,-18.263065 31.42491,-39.878484 38.84644,-64.591485 z"
             fill="#e32934"
             id="path33621"
             style="stroke-width:1.4394" />
          <path
             d="m 205.13139,136.9498 c 40.78531,0 73.85113,-33.08453 73.85113,-73.888546 0,-14.444345 -4.14547,-27.912779 -11.30502,-39.29121 a 4.0000833,4.0000833 0 0 1 -0.50379,-0.614622 52.550932,52.550932 0 0 1 2.25841,15.295029 c 0,8.384485 -1.93743,16.319879 -5.74319,23.750044 a 53.752828,53.752828 0 0 1 -15.48647,17.936322 c -5.16168,3.807204 -11.35684,7.034334 -18.65026,9.679944 -5.80509,2.12455 -13.35616,4.32107 -22.7108,6.44706 l -26.9743,6.069929 c -11.46767,2.62834 -21.91193,5.44092 -31.21619,8.32115 13.54616,16.08238 33.81862,26.2949 56.48048,26.2949 z"
             fill="#004883"
             id="path33623"
             style="stroke-width:1.4394" />
        </g>
      </g>
    </g>
  </g>
</svg>
