<?xml version="1.0" encoding="UTF-8" standalone="no"?>
<!-- Created with Inkscape (http://www.inkscape.org/) -->

<svg
   width="210mm"
   height="297mm"
   viewBox="0 0 210 297"
   version="1.1"
   id="svg1"
   inkscape:version="1.3.2 (091e20e, 2023-11-25)"
   sodipodi:docname="logo_carrefour.svg"
   xmlns:inkscape="http://www.inkscape.org/namespaces/inkscape"
   xmlns:sodipodi="http://sodipodi.sourceforge.net/DTD/sodipodi-0.dtd"
   xmlns="http://www.w3.org/2000/svg"
   xmlns:svg="http://www.w3.org/2000/svg">
  <sodipodi:namedview
     id="namedview1"
     pagecolor="#ffffff"
     bordercolor="#000000"
     borderopacity="0.25"
     inkscape:showpageshadow="2"
     inkscape:pageopacity="0.0"
     inkscape:pagecheckerboard="0"
     inkscape:deskcolor="#d1d1d1"
     inkscape:document-units="mm"
     inkscape:zoom="0.2102413"
     inkscape:cx="397.16269"
     inkscape:cy="561.25984"
     inkscape:window-width="1440"
     inkscape:window-height="847"
     inkscape:window-x="0"
     inkscape:window-y="25"
     inkscape:window-maximized="1"
     inkscape:current-layer="layer1" />
  <defs
     id="defs1" />
  <g
     inkscape:label="Layer 1"
     inkscape:groupmode="layer"
     id="layer1">
    <g
       id="g33666"
       transform="matrix(1.7316997,0,0,2.4323583,-15.398956,32.913846)">
      <path
         style="fill:#f03e30;stroke-width:0.167116"
         d="m 61.016675,57.513742 c -1.240836,-1.20559 -3.667248,-3.54864 -5.392027,-5.20678 -2.415888,-2.32254 -3.178352,-3.15627 -3.320573,-3.63096 -0.301563,-1.00653 0.01605,-1.61456 1.658989,-3.17595 0.800375,-0.76064 2.508057,-2.40624 3.79485,-3.65688 4.664268,-4.53324 5.603483,-5.40781 5.701882,-5.30942 0.05508,0.0551 -0.31225,0.68729 -0.816295,1.4049 -2.239165,3.18787 -3.297986,6.48231 -3.297986,10.2614 0,3.62931 1.052628,6.85519 3.278541,10.0474 1.498471,2.14898 1.236525,2.02941 -1.607381,-0.73371 z"
         id="path32879" />
      <g
         id="g2">
        <path
           style="fill:#003c88;stroke-width:0.167116"
           d="m 70.375168,60.395982 c -2.181946,-0.44689 -3.621837,-2.76203 -4.373076,-7.0313 -0.302472,-1.71894 -0.299822,-8.68068 0.0039,-10.36119 0.567992,-3.14228 1.284849,-4.91312 2.498082,-6.17097 0.752402,-0.78007 1.432918,-1.03403 2.758063,-1.02928 1.684224,0.006 2.623122,0.33722 3.765983,1.32842 0.575885,0.49946 0.639704,1.34665 0.141085,1.87289 -1.373472,1.44957 -1.797507,3.16627 -1.113766,4.50909 1.27906,2.51198 4.405962,2.54834 5.682635,0.0661 0.335908,-0.6531 0.408809,-1.0331 0.400023,-2.08505 -0.0057,-0.70751 -0.107084,-1.54109 -0.224825,-1.85239 -0.334082,-0.88331 -0.887551,-2.02675 -1.216707,-2.51364 -0.806231,-1.19259 -0.116148,-0.67435 2.518298,1.89119 9.091188,8.85342 8.748358,8.46163 8.380268,9.57698 -0.12318,0.37323 -1.27563,1.62294 -3.569817,3.87111 -6.158567,6.03501 -7.474899,7.2895 -7.559802,7.20459 -0.04623,-0.0462 0.133594,-0.45313 0.399588,-0.90426 1.696965,-2.87805 1.684699,-5.99047 -0.02874,-7.29738 -0.795581,-0.60682 -1.81588,-0.84589 -2.581264,-0.60482 -2.39867,0.7555 -3.256305,3.17796 -1.882857,5.3183 0.285366,0.44469 0.668392,0.94388 0.85117,1.10929 0.640506,0.57966 0.256235,1.56968 -0.900361,2.31963 -1.037545,0.67276 -2.789193,1.02004 -3.947913,0.78272 z"
           id="path32875" />
      </g>
    </g>
  </g>
</svg>
