<?xml version="1.0" encoding="UTF-8" standalone="no"?>
<!-- Created with Inkscape (http://www.inkscape.org/) -->

<svg
   width="210mm"
   height="297mm"
   viewBox="0 0 210 297"
   version="1.1"
   id="svg1"
   inkscape:version="1.3.2 (091e20e, 2023-11-25)"
   sodipodi:docname="logo_burguerking.svg"
   xmlns:inkscape="http://www.inkscape.org/namespaces/inkscape"
   xmlns:sodipodi="http://sodipodi.sourceforge.net/DTD/sodipodi-0.dtd"
   xmlns="http://www.w3.org/2000/svg"
   xmlns:svg="http://www.w3.org/2000/svg">
  <sodipodi:namedview
     id="namedview1"
     pagecolor="#ffffff"
     bordercolor="#000000"
     borderopacity="0.25"
     inkscape:showpageshadow="2"
     inkscape:pageopacity="0.0"
     inkscape:pagecheckerboard="0"
     inkscape:deskcolor="#d1d1d1"
     inkscape:document-units="mm"
     inkscape:zoom="0.2102413"
     inkscape:cx="397.16269"
     inkscape:cy="561.25984"
     inkscape:window-width="1440"
     inkscape:window-height="847"
     inkscape:window-x="0"
     inkscape:window-y="25"
     inkscape:window-maximized="1"
     inkscape:current-layer="layer1" />
  <defs
     id="defs1" />
  <g
     inkscape:label="Layer 1"
     inkscape:groupmode="layer"
     id="layer1">
    <g
       fill-rule="evenodd"
       clip-rule="evenodd"
       id="g33535"
       transform="matrix(0.45691311,0,0,0.42167702,56.115501,113.07777)">
      <path
         d="m 112.45961,16.415954 c -9.634,0 -18.876996,1.861 -27.700996,5.583 -8.494,3.601 -16.027,8.673 -22.6,15.246 -6.543,6.572 -11.645,14.106 -15.216,22.599 -3.752,8.824 -5.612,18.038 -5.612,27.702 0,9.634 1.86,18.877996 5.612,27.670996 3.571,8.523 8.673,16.057 15.216,22.629 6.573,6.574 14.106,11.646 22.6,15.246 8.823,3.723 18.065996,5.613 27.700996,5.613 9.663,0 18.878,-1.891 27.702,-5.613 8.494,-3.6 16.027,-8.672 22.6,-15.246 6.541,-6.572 11.645,-14.105 15.217,-22.629 3.75,-8.793 5.611,-18.036996 5.611,-27.670996 0,-9.664 -1.861,-18.878 -5.611,-27.702 -3.572,-8.493 -8.676,-16.027 -15.217,-22.599 -6.572,-6.573 -14.105,-11.645 -22.6,-15.246 -8.824,-3.721 -18.039,-5.583 -27.702,-5.583 z"
         fill="#ffffff"
         id="path33517" />
      <path
         d="m 144.33361,39.706954 c 0.721,-0.091 1.139,-0.391 1.32,-0.811 0.209,-0.511 0.09,-1.021 -0.33,-1.531 -3.361,-5.703 -10.955,-9.214 -22.84,-10.475 -4.953,-0.54 -10.264,-0.3 -15.966,0.72 -6.033,1.051 -11.254996,2.732 -15.666996,5.103 -10.984,5.912 -17.287,13.746 -18.938,23.53 -0.24,0.9 -0.181,1.532 0.119,1.921 0.331,0.39 0.871,0.45 1.621,0.209 14.676,-4.922 26.051,-8.463 34.094996,-10.624 12.695,-3.331 24.881,-6.032 36.586,-8.042 z"
         fill="#eebd31"
         id="path33521" />
      <path
         d="m 133.19861,23.019954 a 65.158,65.158 0 0 0 -20.199,-3.211 c -9.874,0 -19.177996,1.891 -27.850996,5.702 -8.193,3.571 -15.366,8.614 -21.579,15.097 -5.973,6.273 -10.625,13.445 -13.896,21.519 -3.301,8.073 -4.923,16.356 -4.923,24.881 0,9.184 1.711,17.947996 5.163,26.349996 3.361,8.193 8.073,15.428 14.226,21.73 a 65.66,65.66 0 0 0 21.369,14.766 c 8.433,3.662 17.316996,5.463 26.681996,5.463 16.296,0 30.522,-4.922 42.677,-14.826 4.773,-3.873 8.975,-8.375 12.637,-13.445 3.092,-4.293 5.521,-8.645 7.293,-12.996 l -11.375,-6.184 c -4.803,10.805 -11.465,19.359 -19.988,25.631 -9.035,6.633 -19.268,10.025 -30.644,10.205 -8.434,0.121 -16.386996,-1.199 -23.829996,-3.992 -7.263,-2.701 -13.655,-6.633 -19.178,-11.824 l -6.573,2.82 v -10.174 c -3.662,-4.922 -6.422,-10.324 -8.343,-16.297 -1.981,-6.151996 -2.971,-12.665996 -2.971,-19.507996 0,-8.793 1.621,-17.106 4.862,-24.97 3.152,-7.653 7.653,-14.375 13.505,-20.168 5.913,-5.883 12.786,-10.384 20.649,-13.566 8.164,-3.271 16.926996,-4.922 26.260996,-4.922 5.011,-0.002 10.384,0.658 16.026,1.919 z"
         fill="#3261a5"
         id="path33523" />
      <path
         d="m 167.05261,69.538954 c -0.449,-0.959 -1.17,-1.62 -2.189,-2.04 -1.592,-0.601 -3.334,-0.991 -5.312,-1.111 -1.951,-0.12 -3.902,0 -5.883,0.421 -3.781,0.75 -7.023,2.37 -9.695,4.861 -3.871,3.602 -5.822,8.494 -5.822,14.736 0,5.223 1.711,9.093 5.133,11.615 2.91,2.130996 6.482,2.970996 10.684,2.489996 4.742,-0.538996 8.434,-2.130996 11.105,-4.770996 1.531,-1.5 2.281,-3.571 2.311,-6.212 0.061,-1.801 0.061,-5.613 0,-11.375 l -14.195,3.092 v 3.302 c 0.029,2.401 1.141,3.391 3.391,2.94 l 1.801,-0.45 0.031,2.702 c 0.029,0.239 -0.062,0.51 -0.33,0.811 -0.51,0.66 -1.531,1.11 -3.033,1.41 -2.279,0.33 -3.99,-0.12 -5.16,-1.44 -1.111,-1.231 -1.682,-3.182 -1.711,-5.793 0.061,-2.61 0.75,-4.772 2.1,-6.453 1.232,-1.53 2.822,-2.551 4.832,-3.001 1.771,-0.42 3.451,-0.54 5.043,-0.33 l 2.941,0.57 c 1.141,0.181 2.07,-0.09 2.881,-0.721 0.691,-0.599 1.17,-1.41 1.381,-2.4 a 4.63,4.63 0 0 0 -0.304,-2.853 z m -38.387,5.192 c -0.838,1.11 -1.26,2.611 -1.26,4.592 l -0.029,10.024 c -3.781,-4.742 -6.934,-8.374 -9.395,-10.865 -1.351,-1.32 -3.092,-1.59 -5.283,-0.809 l -4.861,1.47 v 33.462996 l 4.712,-1.619 c 1.741,-0.602 2.972,-1.471 3.721,-2.553 0.721,-1.08 1.051,-2.52 1.051,-4.352 l -0.061,-11.553996 10.115,11.674996 c 1.5,1.529 3.361,1.98 5.611,1.32 a 4.777,4.777 0 0 0 2.521,-1.74 c 0.721,-0.9 1.08,-1.951 1.109,-3.152 V 71.639954 c -1.74,0.36 -3.33,0.75 -4.801,1.17 -1.378,0.39 -2.429,1.021 -3.15,1.921 z m -29.440996,6.963 c -1.711,0.63 -2.971,1.501 -3.751,2.551 -0.901,1.261 -1.321,3.032 -1.321,5.373 l -0.029,27.791996 5.462,-1.951 c 1.889996,-0.721 3.210996,-1.59 3.990996,-2.701 0.78,-1.08 1.171,-2.611 1.171,-4.562 l 0.03,-28.300996 a 86.064,86.064 0 0 0 -5.552996,1.799 z m -24.46,9.393 -10.115,4.203 -0.06,33.343996 7.143,-3.002 c 0.96,-0.238 1.711,-0.84 2.25,-1.711 0.541,-0.84 0.781,-1.92 0.751,-3.27 v -10.596 l 7.983,8.494 c 0.99,0.99 2.16,1.59 3.511,1.74 1.561,0.211 3.001,-0.24 4.322,-1.291 1.2,-0.99 1.83,-2.25 1.891,-3.781 0.03,-1.41 -0.331,-2.551 -1.14,-3.451 l -7.293,-7.293 7.473,-11.794996 c 0.69,-1.14 0.871,-2.311 0.54,-3.481 -0.36,-1.231 -1.17,-2.131 -2.401,-2.671 -1.291,-0.6 -2.581,-0.66 -3.781,-0.21 -1.051,0.39 -1.86,1.021 -2.431,1.921 l -8.614,14.646996 z"
         fill="#cc2131"
         id="path33525" />
      <path
         d="m 157.29861,103.18295 c -0.359,-0.391 -0.99,-0.48 -1.861,-0.24 -10.023,2.342 -21.518,5.553 -34.514,9.635 -13.956,4.383 -25.270996,8.434 -33.914996,12.154 l -0.871,0.42 c -0.209,0.15 -0.39,0.33 -0.48,0.602 -0.271,0.568 -0.12,1.141 0.451,1.74 0.99,1.201 2.641,2.371 4.982,3.512 2.52,1.199 5.402,2.191 8.703,2.941 8.043996,1.77 16.116996,1.68 24.218996,-0.271 11.496,-2.76 20.408,-7.982 26.742,-15.666 2.102,-2.58 3.812,-5.312 5.133,-8.164 0.811,-1.74 1.381,-3.301 1.711,-4.682 0.18,-0.931 0.091,-1.591 -0.3,-1.981 z"
         fill="#eebd31"
         id="path33527" />
      <path
         d="m 72.993614,66.567954 c -1.591,-0.841 -3.631,-0.841 -6.123,0.089 -1.26,0.451 -3.751,1.441 -7.502,2.971 l 0.029,24.311 8.944,-3.812 c 2.461,-1.021 4.292,-2.161 5.492,-3.392 1.501,-1.561 2.22,-3.391 2.19,-5.552 -0.029,-1.201 -0.419,-2.221 -1.23,-3.061 a 4.738,4.738 0 0 0 -2.792,-1.5 c 2.131,-1.712 3.181,-3.722 3.181,-6.062 0.001,-1.861 -0.749,-3.182 -2.189,-3.992 z m -6.303,9.603 -1.141,0.48 v -5.131 c 0.991,-0.541 1.831,-0.661 2.492,-0.451 0.63,0.24 0.96,0.78 0.93,1.681 0,1.531 -0.78,2.671 -2.281,3.421 z m 1.772,3.872 c 0.69,0.36 1.05,0.99 1.05,1.95 0.061,1.682 -0.811,2.912 -2.521,3.692 l -1.38,0.63 v -5.913 c 1.169,-0.599 2.13,-0.719 2.851,-0.359 z m 24.579,-19.388 c 0,-0.99 -0.299,-1.65 -0.93,-2.01 -0.54,-0.33 -1.291,-0.36 -2.161,-0.09 -0.931,0.27 -1.921,0.6 -3.001,1.02 v 15.096 c -0.061,2.251 -0.75,3.512 -2.131,3.872 -0.69,0.15 -1.23,0.03 -1.591,-0.36 -0.33,-0.36 -0.51,-0.959 -0.51,-1.74 l -0.03,-12.366 c 0,-0.991 -0.301,-1.681 -0.9,-2.041 -0.57,-0.36 -1.29,-0.36 -2.191,-0.09 l -3.062,1.11 v 14.977 c -0.028,2.521 0.751,4.351 2.341,5.432 1.622,1.141 3.751,1.321 6.363,0.541 2.551,-0.751 4.412,-1.891 5.612,-3.332 1.441,-1.741 2.161,-4.172 2.19,-7.324 v -12.695 z m 44.748996,-6.392 v -3.392 l 5.191,-1.08 c 1.232,-0.241 1.861,-1.11 1.861,-2.551 v -2.581 c -4.291,0.721 -8.674,1.62 -13.115,2.641 l -0.09,22.179 a 466.974,466.974 0 0 1 11.254,-2.581 c 1.441,-0.33 2.191,-1.291 2.191,-2.881 v -2.582 l -7.293,1.591 0.029,-4.292 4.562,-0.959 c 1.26,-0.301 1.891,-1.082 1.891,-2.402 l -0.029,-2.461 z m -43.066996,25.631 3.63,-1.23 c 1.650996,-0.66 2.460996,-1.741 2.490996,-3.301 l 0.03,-5.943 5.222,5.432 c 0.781,0.751 1.651,1.081 2.67,1.022 0.811,-0.091 1.472,-0.361 2.011,-0.872 0.661,-0.6 0.991,-1.38 0.991,-2.311 -0.03,-0.9 -0.33,-1.65 -0.931,-2.251 l -3.961,-3.782 c 2.551,-2.1 3.812,-4.532 3.841,-7.232 0,-1.891 -0.72,-3.301 -2.19,-4.202 -1.501,-0.93 -3.422,-1.14 -5.732,-0.601 -1.981,0.45 -4.681996,1.291 -8.071996,2.461 z m 6.120996,-13.897 v -6.332 c 2.341,-0.871 3.542,-0.36 3.572,1.531 0.03,1.98 -1.171,3.571 -3.572,4.801 z m 59.155,-21.758 c -1.441,-1.111 -3.301,-1.531 -5.521,-1.23 l -8.043,1.35 v 21.849 l 3.33,-0.63 c 1.711,-0.391 2.58,-1.41 2.611,-3.121 v -5.343 l 5.133,6.032 c 0.51,0.57 1.141,0.9 1.83,1.021 0.811,0.149 1.59,0 2.34,-0.481 0.811,-0.511 1.262,-1.23 1.352,-2.131 0.09,-0.901 -0.15,-1.681 -0.75,-2.312 l -3.961,-4.441 c 2.461,-1.651 3.721,-3.722 3.721,-6.213 0.028,-1.86 -0.661,-3.27 -2.042,-4.35 z m -7.623,9.483 -0.031,-5.913 c 2.312,-0.48 3.512,0.091 3.543,1.741 0,1.891 -1.17,3.272 -3.512,4.172 z m -22.269,-1.681 c 0.029,-1.05 -0.42,-1.86 -1.35,-2.431 -1.021,-0.57 -2.463,-0.811 -4.383,-0.78 -4.082,0.149 -7.293,1.561 -9.634,4.261 -2.161,2.491 -3.241,5.643 -3.241,9.485 0,3.631 1.08,6.333 3.21,8.104 1.981,1.651 4.562,2.191 7.652,1.621 2.643,-0.511 4.713,-1.44 6.213,-2.791 1.111,-0.961 1.652,-2.251 1.652,-3.842 v -8.614 l -9.096,2.041 v 2.521 c 0,0.601 0.211,1.051 0.602,1.381 0.389,0.331 0.871,0.45 1.441,0.331 l 1.32,-0.3 0.029,2.49 c 0,0.511 -0.301,0.901 -0.93,1.201 -0.602,0.3 -1.32,0.45 -2.102,0.42 -2.25,-0.03 -3.361,-1.68 -3.422,-4.952 0.029,-2.041 0.51,-3.692 1.381,-5.012 0.871,-1.23 1.98,-2.012 3.391,-2.402 0.9,-0.209 2.072,-0.239 3.543,-0.06 1.141,0.211 2.041,0.03 2.701,-0.45 0.66,-0.48 0.993,-1.231 1.023,-2.222 z"
         fill="#cc2131"
         id="path33529" />
      <path
         d="m 79.325614,53.061954 c 0.3,-0.21 0.451,-0.57 0.51,-1.021 1.021,-3.871 2.971,-7.683 5.853,-11.375 2.701,-3.452 5.643,-6.153 8.854,-8.104 -4.592,2.011 -8.644,5.222 -12.185,9.634 -1.441,1.831 -2.611,3.631 -3.512,5.432 -0.84,1.711 -1.32,3.121 -1.44,4.292 0,0.42 0.09,0.75 0.3,1.021 0.209,0.24 0.48,0.359 0.81,0.39 0.3,0.031 0.571,-0.059 0.81,-0.269 z m 56.724996,-16.897 c 0.029,-0.99 -0.631,-2.01 -1.922,-3.061 -1.23,-0.99 -2.941,-1.892 -5.072,-2.731 -2.221,-0.811 -4.561,-1.38 -7.082,-1.771 -2.701,-0.389 -5.343,-0.509 -7.894,-0.299 5.042,0.359 9.244,1.35 12.605,3.062 1.473,0.72 2.611,1.5 3.422,2.34 0.779,0.81 1.201,1.591 1.201,2.311 0.029,0.901 -0.33,1.741 -1.051,2.461 -0.66,0.75 -1.561,1.291 -2.611,1.621 l 3.541,-0.84 c 1.201,-0.271 2.072,-0.51 2.643,-0.75 1.47,-0.512 2.189,-1.293 2.22,-2.343 z m 15.096,74.671996 c 0.301,-0.631 0.33,-1.201 0.121,-1.682 -0.15,-0.449 -0.48,-0.75 -0.961,-0.9 -0.481,-0.15 -0.932,-0.09 -1.381,0.15 -0.541,0.301 -0.9,0.811 -1.141,1.531 -1.41,3.662 -3.393,7.023 -5.941,10.113 -3.002,3.691 -6.635,6.723 -10.865,9.123 4.291,-1.68 8.133,-3.99 11.494,-6.932 3.752,-3.27 6.633,-7.052 8.674,-11.403 z"
         fill="#ffffff"
         id="path33531" />
      <path
         fill="#cc2131"
         d="m 173.11461,108.10395 h -2.25 v 0.362 h 0.87 v 1.74 h 0.57 v -1.74 h 0.81 z m 0.871,0.391 0.51,1.711 h 0.571 l 0.509,-1.711 v 1.711 h 0.571 v -2.102 h -0.84 l -0.51,1.622 -0.541,-1.622 h -0.84 v 2.102 h 0.57 z"
         id="path33533" />
    </g>
  </g>
</svg>
