<?xml version="1.0" encoding="UTF-8" standalone="no"?>
<!-- Created with Inkscape (http://www.inkscape.org/) -->

<svg
   width="210mm"
   height="297mm"
   viewBox="0 0 210 297"
   version="1.1"
   id="svg1"
   inkscape:version="1.3.2 (091e20e, 2023-11-25)"
   sodipodi:docname="logo_ferrari.svg"
   xmlns:inkscape="http://www.inkscape.org/namespaces/inkscape"
   xmlns:sodipodi="http://sodipodi.sourceforge.net/DTD/sodipodi-0.dtd"
   xmlns="http://www.w3.org/2000/svg"
   xmlns:svg="http://www.w3.org/2000/svg">
  <sodipodi:namedview
     id="namedview1"
     pagecolor="#ffffff"
     bordercolor="#000000"
     borderopacity="0.25"
     inkscape:showpageshadow="2"
     inkscape:pageopacity="0.0"
     inkscape:pagecheckerboard="0"
     inkscape:deskcolor="#d1d1d1"
     inkscape:document-units="mm"
     inkscape:zoom="0.2102413"
     inkscape:cx="397.16269"
     inkscape:cy="561.25984"
     inkscape:window-width="1440"
     inkscape:window-height="847"
     inkscape:window-x="0"
     inkscape:window-y="25"
     inkscape:window-maximized="1"
     inkscape:current-layer="layer1" />
  <defs
     id="defs1" />
  <g
     inkscape:label="Layer 1"
     inkscape:groupmode="layer"
     id="layer1">
    <g
       fill-rule="evenodd"
       clip-rule="evenodd"
       id="g33585"
       transform="matrix(0.33721389,0,0,0.31127436,75,120)">
      <path
         fill="#ffffff"
         d="M 0,0 H 192.756 V 192.756 H 0 Z"
         id="path33565" />
      <path
         fill="#ffffff"
         d="m 161.35,23.388 v 3.349 L 96.376,15.35 31.407,26.737 V 23.388 L 96.376,11.926 Z"
         id="path33567" />
      <path
         fill="#33a457"
         d="m 161.35,19.963 v 3.425 L 96.376,11.926 31.407,23.388 V 19.963 L 96.376,8.504 Z"
         id="path33569" />
      <path
         d="M 161.35,26.737 96.376,15.35 31.407,26.737 l 0.001,11.554 0.563,-0.319 c 0.229,-0.128 23.283,-12.91 64.53,-12.91 41.25,0 64.035,12.785 64.266,12.912 l 0.557,0.32 z"
         fill="#cc2131"
         id="path33571" />
      <path
         d="m 96.502,27.295 c 37.248,0 59.059,10.482 62.594,12.32 v 33.262 c 0,18.134 -4.271,36.199 -12.689,53.703 -18.426,38.232 -46.152,53.244 -50.03,55.203 C 92.496,179.824 64.749,164.812 46.328,126.58 37.91,109.076 33.64,91.011 33.64,72.877 V 39.619 C 37.207,37.783 59.247,27.295 96.502,27.295 Z"
         fill="#fff22d"
         id="path33573" />
      <path
         d="m 31.972,37.971 -0.563,0.319 v 34.587 c 0,18.474 4.343,36.867 12.909,54.666 20.109,41.75 51.285,56.355 51.597,56.498 l 0.462,0.211 0.461,-0.211 c 0.315,-0.143 31.465,-14.752 51.573,-56.498 8.57,-17.799 12.914,-36.192 12.914,-54.666 V 38.293 l -0.557,-0.32 c -0.23,-0.127 -23.016,-12.912 -64.266,-12.912 -41.247,0 -64.301,12.782 -64.53,12.91 z m 64.53,-10.676 c 37.248,0 59.059,10.482 62.594,12.32 v 33.262 c 0,18.134 -4.271,36.199 -12.689,53.703 -18.426,38.232 -46.152,53.244 -50.03,55.203 C 92.496,179.824 64.749,164.812 46.328,126.58 37.91,109.076 33.64,91.011 33.64,72.877 V 39.619 C 37.207,37.783 59.247,27.295 96.502,27.295 Z"
         id="path33575" />
      <path
         d="m 106.258,149.551 c 1.082,0.748 0.297,2.047 -0.504,2.25 -0.834,0.227 -1.547,-0.699 -1.951,0.316 -0.227,0.545 0.389,4.674 4.613,4.674 3.943,0 5.824,-5.062 6.195,-5.824 0.373,-0.76 0.613,-1.73 0.24,-1.73 -1.73,0 -2.234,1.027 -2.234,1.027 0,0 -0.131,-0.988 0.729,-1.734 0.709,-0.609 1.639,-0.461 1.975,-0.461 0.705,0 0.594,-0.525 1.02,-1.564 0.971,-2.445 1.639,-2.555 2.27,-3.67 0.523,-0.908 -0.465,-1.264 -2.414,-1.447 -1.955,-0.186 -3.002,-0.107 -3.875,0.02 -0.875,0.125 -1.746,0.48 -2.289,1.818 -0.291,0.725 0.242,1.439 1.266,1.254 1.023,-0.191 2.008,-0.965 2.008,-0.965 0,0 -0.461,1.832 -1.988,2.211 -1.416,0.348 -3.088,-0.506 -2.863,-1.939 0.293,-1.859 1.578,-3.221 3.922,-3.68 2.348,-0.473 4.688,-0.111 6.775,0.402 2.08,0.525 3.611,0.207 5.545,0.094 4.17,-0.223 6.754,-1.207 6.754,-1.207 0,0 -1.879,1.525 -4.484,2.23 -2.605,0.711 -4.928,0.416 -5.68,0.711 -0.607,0.26 -1.465,1.465 -2.172,2.842 -0.65,1.266 -1.342,2.725 -1.043,2.725 2.422,0.092 3.309,-0.438 3.309,-0.438 0,0 -0.479,1.045 -1.633,1.539 -0.801,0.324 -2.16,0.324 -2.16,0.324 0,0 -0.611,1.547 -1.299,2.943 -0.693,1.395 -1.828,3.574 -3.871,4.652 -2.051,1.076 -5.973,2.418 -8.443,-1.135 -2.613,-3.727 -0.228,-7.967 2.282,-6.238 z m -30.325,0.486 c 0.482,1.234 -0.542,1.877 -1.137,1.877 -0.597,0 -1.34,-0.443 -1.495,0.303 -0.142,0.74 1.585,4.557 5.603,4.557 4.02,0 5.883,-2.326 5.6,-4.41 -0.315,-2.326 -4.01,-3.25 -6.955,-4.799 -1.441,-0.756 -4.698,-1.262 -4.698,-4.311 0,-6.51 9.907,-2.352 9.907,-2.352 0,0 0.021,-0.814 0.482,-0.852 0.223,-0.021 0.671,-0.109 0.82,0.627 0.147,0.742 0.802,4.652 0.802,4.652 0,0 -1.456,-2.977 -5.452,-4.277 -0.707,-0.248 -3.798,-0.836 -3.78,1.611 0.037,1.453 1.808,2.105 4.878,3.297 4.035,1.582 6.102,3.055 5.149,7.297 -0.907,4.073 -4.889,4.743 -6.825,4.743 -1.932,0 -6.378,-1.355 -6.378,-5.824 0,-3.16 3.1,-3.086 3.479,-2.139 z m 21.169,-24.478 1.627,0.771 c 0.938,0.363 1.537,0.203 1.752,0.113 0.227,-0.098 1.086,-1.02 1.273,-1.805 0.088,-0.32 0.041,-0.598 -0.129,-0.803 -0.633,-0.75 -1.754,-4.195 -2.17,-6.057 -0.154,-0.691 0.033,-2.598 0.178,-4.133 0.127,-1.318 0.205,-2.137 0.139,-2.348 -0.111,-0.326 -0.598,-0.641 -1.158,-0.996 l -0.887,-0.604 c -0.473,-0.387 -0.494,-0.914 -0.52,-1.48 l -0.094,-0.879 c -0.206,-0.818 -4.369,-5.07 -5.014,-5.109 -0.935,-0.061 -1.178,0.965 -1.238,1.582 -0.037,0.361 0.38,1.973 0.756,3.402 l 0.415,1.723 c 0.426,2.709 3.306,7.48 4.534,9.516 l 0.583,0.99 c 0.252,0.574 0.154,1.027 -0.294,1.281 -0.435,0.25 -4.178,-0.141 -5.966,-0.553 -0.768,-0.176 -1.716,-0.559 -2.641,-0.934 -1.059,-0.422 -2.063,-0.832 -2.643,-0.861 -0.677,-0.035 -0.998,0.102 -1.247,0.217 l -0.406,0.113 -0.404,-0.129 c -0.496,-0.219 -1.423,-0.619 -3.954,-0.848 -3.689,-0.346 -3.966,0.396 -4.116,0.797 -0.183,0.51 2.072,2.908 2.475,3.229 0.513,0.414 2.172,1.045 3.185,0.877 1.158,-0.186 3.046,-0.42 3.28,-0.373 l 0.38,0.232 0.353,0.25 c 0.32,0.131 2.382,0.244 3.005,0.277 0.719,0.039 2.607,0.43 3.987,0.719 l 1.542,0.311 c 0.604,0.111 2.16,0.879 3.417,1.512 z"
         id="path33577" />
      <path
         d="m 135.264,77.716 c -0.082,-0.101 -0.15,-0.107 -0.193,-0.096 -0.039,0.013 -0.092,0.05 -0.107,0.17 -0.068,0.514 -0.713,1.835 -1.225,2.03 -1.037,0.401 -1.574,1.617 -1.963,2.503 -0.199,0.457 -0.393,0.893 -0.547,0.899 -0.066,0.005 -0.139,-0.066 -0.219,-0.214 -0.639,-1.102 -0.281,-2.787 0.006,-4.145 l 0.066,-0.333 c 0.234,-1.145 1.574,-2.749 2.375,-3.711 l 0.354,-0.426 c 0.545,-0.68 0.682,-2.984 0.58,-3.157 -0.033,-0.01 -0.055,0.009 -0.068,0.029 a 0.13,0.13 0 0 0 -0.031,0.036 l -0.012,-0.002 v 0.012 c -0.033,0.036 -0.061,0.04 -0.088,0.156 -0.143,0.72 -1.459,2.183 -3.707,4.127 -0.461,0.399 -0.986,1.12 -1.416,1.699 -0.277,0.38 -0.602,0.818 -0.688,0.839 -0.557,-2.972 0.451,-4.671 0.93,-5.492 l 0.223,-0.417 c 0.951,-2.588 3.4,-4.548 3.426,-4.566 0.033,-0.075 0.033,-0.155 -0.027,-0.206 -0.094,-0.072 -0.266,-0.041 -0.537,0.095 l -0.148,0.074 c -0.854,0.415 -3.43,1.67 -5.01,4.692 -1.135,2.176 -1.574,4.608 -1.574,6.442 0,0.936 0.113,1.712 0.305,2.226 0.555,1.48 1.527,5.158 1.826,6.602 0.186,0.895 0.215,3.968 0.215,5.894 0,0.941 -0.004,1.6 -0.004,1.625 -0.006,0 -0.49,1.562 -0.49,1.562 -0.002,0.016 -0.236,1.236 -2.23,3.275 -2.008,2.051 -4.244,2.703 -4.264,2.711 -0.898,0.07 -1.717,0.033 -1.746,-0.084 0,-2.344 -4.014,-7.797 -6.068,-9.596 -2.096,-1.837 -3.771,-3.153 -6.617,-4.885 -2.898,-1.764 -6.121,-9.159 -6.158,-9.231 l -0.279,-0.999 c 0,0 -0.156,-1.995 -0.199,-2.514 0.105,0.06 0.242,0.145 0.242,0.145 l 0.988,0.575 1.135,0.436 c 0.01,0.003 1.486,0.292 1.486,0.292 0,0.003 0.826,0.426 0.826,0.426 l 0.766,0.498 1.191,0.86 1.223,0.643 c 0.025,0.007 1.469,0.081 1.469,0.081 l 0.033,-0.119 c 0,0 -1.672,-0.785 -1.676,-0.785 0,-0.024 -0.602,-1.054 -0.602,-1.054 a 501.77,501.77 0 0 1 -0.701,-1.009 c -0.023,-0.016 -0.869,-0.521 -0.869,-0.521 a 50.437,50.437 0 0 0 -1.076,-0.152 c 0,-0.009 -0.211,-0.19 -0.32,-0.288 0.094,-0.055 0.271,-0.165 0.271,-0.165 0,0.013 1.152,0.146 1.156,0.146 0,0.012 1.025,0.709 1.025,0.709 l 1.119,0.862 c 0.018,0.009 1.059,0.413 1.059,0.413 l 0.137,0.054 -0.457,-1.189 a 81.853,81.853 0 0 0 -0.863,-0.815 l -1.268,-1.078 c -0.01,-0.009 -0.996,-0.517 -0.996,-0.517 -0.01,-0.002 -1.062,-0.357 -1.062,-0.357 0,-0.002 -1.113,-0.712 -1.113,-0.712 0,0 0.012,-0.076 0.02,-0.141 0.141,0.054 1.541,0.616 1.541,0.616 0.008,10e-4 1.342,0.364 1.342,0.364 -0.002,-0.005 1.119,0.428 1.119,0.428 -0.004,-0.004 1.609,0.783 1.609,0.783 0.014,0.007 1.35,0.297 1.35,0.297 0.023,10e-4 1.648,-0.29 1.648,-0.29 0.021,-0.01 1.57,-1.088 1.57,-1.088 0.018,-0.029 0.303,-0.67 0.303,-0.67 l 0.061,-0.148 -0.498,0.206 c -0.004,0 -1.406,0.712 -1.408,0.712 l -0.971,0.217 c 0,-0.005 -1.096,-0.22 -1.098,-0.22 h 0.002 c 0,-0.013 -0.889,-0.84 -0.889,-0.84 l -1.262,-1.222 -1.141,-0.584 c -0.016,-0.007 -1.35,-0.223 -1.35,-0.223 0,-0.003 -0.812,-0.416 -0.826,-0.423 0.004,0 0.006,-0.015 0.006,-0.036 0,-0.098 -0.025,-0.312 -0.035,-0.412 l 1.678,0.141 1.838,-0.148 c 0,0.005 1.035,0.216 1.035,0.216 l 1.047,0.432 1.072,0.145 0.193,0.026 -1.195,-1.143 c -0.012,-0.006 -1.205,-0.868 -1.205,-0.868 -0.014,-0.007 -1,-0.368 -1,-0.368 -0.018,-0.004 -1.662,-0.143 -1.695,-0.146 0.014,-10e-4 0.016,-0.029 0.016,-0.07 0,-0.1 -0.016,-0.242 -0.025,-0.315 l 0.777,-0.132 c 0,0.005 1.244,0.285 1.244,0.285 0,0.004 1.178,0.711 1.178,0.711 l 1.273,0.435 c 0.037,0.001 1.859,-0.285 1.859,-0.285 l 0.109,-0.015 -0.555,-0.733 c -0.031,-0.024 -0.947,-0.309 -0.949,-0.309 0,-0.005 -0.756,-0.564 -0.756,-0.564 l -1.127,-0.792 c -0.016,-0.009 -0.857,-0.295 -0.857,-0.295 -0.014,-0.005 -1.34,-0.217 -1.344,-0.218 0,-0.014 -0.652,-0.614 -0.666,-0.624 0.02,-0.004 0.061,-0.213 0.076,-0.308 l 0.701,0.196 0.902,0.43 1.281,0.406 -0.283,-0.565 -0.498,-0.52 -0.436,-0.562 0.189,-0.047 c 0,0.017 1.363,0.712 1.363,0.712 l 1.062,0.362 c 0,0.006 0.82,0.775 0.82,0.775 0.012,0.01 1.564,0.886 1.564,0.886 l 0.156,0.088 -0.283,-0.758 c -0.008,-0.017 -0.85,-1.094 -0.85,-1.094 L 111.179,64.2 c -0.006,-0.014 -1.275,-1.305 -1.275,-1.305 -0.012,-0.012 -1.627,-0.875 -1.631,-0.875 0,-0.007 -0.615,-0.704 -0.615,-0.704 a 406.35,406.35 0 0 1 -1.127,-1.151 c 0,-0.015 -0.115,-0.409 -0.174,-0.609 0.191,0.061 1.094,0.361 1.094,0.361 l 1.264,0.357 c 0,0.003 0.902,0.565 0.902,0.565 0,0.006 0.752,0.919 0.752,0.919 0.027,0.021 1.225,0.525 1.225,0.525 l 3.053,0.396 0.178,0.022 -0.838,-0.882 c -0.021,-0.016 -1.639,-0.735 -1.639,-0.735 l -0.971,-0.708 c 0,-0.013 -0.543,-0.987 -0.543,-0.987 l -0.566,-1.004 c -0.01,-0.015 -0.924,-0.876 -0.924,-0.876 -0.014,-0.01 -1.139,-0.656 -1.139,-0.656 l -1.113,-0.926 c 0,-0.009 -0.268,-0.564 -0.439,-0.934 l 0.773,0.745 1.477,1.293 c 0.018,0.011 1.145,0.514 1.145,0.514 l 0.965,0.78 1.121,1.144 c 0.039,0.018 1.791,0.265 1.791,0.265 l 0.219,0.032 -1.779,-1.541 c 0,-0.028 -0.402,-1.263 -0.402,-1.263 a 65.086,65.086 0 0 0 -0.932,-0.889 l -0.484,-0.569 c 0,-0.015 -0.482,-1.484 -0.482,-1.484 a 92.676,92.676 0 0 0 -1.002,-1.027 c 0,-0.008 -1.607,-1.507 -1.611,-1.513 v -0.003 c 0,-0.023 -0.057,-0.252 -0.09,-0.403 0.123,0.062 0.291,0.151 0.291,0.151 l 1.475,0.859 c 0.014,0.007 1.77,0.509 1.77,0.509 l 1.832,0.434 2.117,0.338 -0.498,-1.007 c -0.035,-0.032 -1.088,-0.461 -1.088,-0.461 l -0.977,-0.57 c -0.01,-0.003 -1.203,-0.507 -1.203,-0.507 l -1.051,-0.43 c 0,-0.01 -0.682,-0.89 -1.062,-1.376 0.365,0.245 0.928,0.628 0.928,0.628 0.027,0.009 0.947,0.082 0.947,0.082 l 2.885,0.001 c 0,0.008 1.168,0.639 1.168,0.641 0,0.004 0.996,1.078 0.996,1.078 l 0.131,0.141 -0.121,-1.212 c -0.012,-0.035 -0.645,-0.826 -0.645,-0.826 -0.018,-0.014 -1.709,-0.948 -1.709,-0.948 l -1.344,-0.506 c -0.01,-0.003 -2.035,-0.361 -2.045,-0.361 v -0.003 c 0,-0.019 -0.387,-0.48 -0.387,-0.48 -0.008,-0.004 -1.482,-1.368 -1.482,-1.368 a 64.219,64.219 0 0 0 -0.717,-0.369 c 0,-0.004 -0.225,-0.235 -0.365,-0.381 h 0.758 c 0,0.012 1.162,0.71 1.162,0.71 0.01,0.007 1.561,0.507 1.561,0.507 l 1.979,0.289 h -0.002 c 0,0.021 0.734,0.843 0.734,0.843 l 1.07,0.657 a 98.63,98.63 0 0 0 1.219,0.217 l 0.17,0.027 -2.504,-3.068 c -0.016,-0.015 -1.213,-0.66 -1.213,-0.66 -0.01,-0.006 -1.414,-0.437 -1.414,-0.437 0,-0.015 -1.236,-1.417 -1.236,-1.417 -0.014,-0.015 -1.562,-0.946 -1.562,-0.946 a 64.776,64.776 0 0 0 -1.125,-0.274 c 0.07,-0.113 0.303,-0.497 0.303,-0.499 0.004,0.011 1.24,-0.548 1.24,-0.548 0,0.003 1.812,-0.354 1.812,-0.354 0.049,-0.042 0.186,-0.475 0.186,-0.475 -0.023,-0.073 -0.797,-0.575 -0.797,-0.575 a 93.909,93.909 0 0 0 -0.928,-0.296 c -0.057,0.007 -0.547,0.294 -0.547,0.296 0,-0.009 -1.516,0.06 -1.516,0.06 0,-0.001 -1.812,-0.427 -1.812,-0.429 0,-0.009 -1.867,-1.565 -1.867,-1.565 a 120.72,120.72 0 0 0 -0.859,-0.438 c -0.021,-0.004 -3.105,-0.365 -3.113,-0.365 0,-0.039 -0.725,-1.121 -0.725,-1.121 L 97.19,34.186 C 97.186,34.18 95.927,33.044 95.927,33.044 l -0.039,0.083 -0.422,0.934 c 0.002,-0.009 -0.416,0.637 -0.416,0.637 v 0.016 c 0,0.119 0.059,0.743 0.059,0.743 0.018,0.039 0.426,0.457 0.435,0.469 -0.021,0 -0.154,0.65 -0.154,0.655 -0.004,-0.045 -1.692,0.024 -1.695,0.024 0,-0.008 -1.379,-0.641 -1.379,-0.641 C 92.307,35.958 91.25,35.6 91.25,35.6 c -0.021,-0.007 -2.48,0.069 -2.48,0.069 -0.054,0.028 -0.471,0.674 -0.471,0.674 l -0.056,0.085 1.082,0.156 c 0,0.004 0.16,0.106 0.249,0.163 l -0.277,0.226 c 0,-0.014 -1.505,-0.083 -1.505,-0.083 -0.025,0.004 -1.084,0.433 -1.084,0.433 l -0.11,0.047 0.525,0.353 c 0.033,0.012 2.282,0.083 2.282,0.083 l 1.67,0.43 v 0.002 c 0,0.023 0.318,0.477 0.318,0.477 0,0 0.226,0.319 0.311,0.444 l -0.715,0.394 c 0.009,-10e-4 -2.032,0.86 -2.032,0.86 l -4.219,2.369 c -0.004,-0.004 -2.778,0.41 -2.778,0.41 -0.021,0.007 -1.086,0.6 -1.086,0.6 -0.023,0.016 -0.878,1.201 -0.878,1.201 -0.009,0.015 -0.493,1.49 -0.493,1.49 -0.038,2.506 0.062,2.564 0.098,2.584 0.083,0.052 0.807,0.462 1.367,0.162 0.634,-0.345 1.991,-0.684 2.696,-0.834 0.348,-0.071 0.511,0.054 0.54,0.183 0.038,0.141 -0.067,0.333 -0.327,0.404 l -0.146,0.043 c -1.226,0.333 -2.477,0.736 -2.436,1.209 l 0.216,0.361 c 0.547,0.399 1.969,0.21 2.724,0.039 l 0.788,-0.221 c 0.68,-0.207 1.453,-0.438 2.113,-0.364 0.381,0.044 0.717,0.208 1.114,0.395 0.538,0.26 1.153,0.555 2.07,0.615 1.529,0.106 2.573,0.415 2.655,0.505 0.205,0.417 0.073,1.034 -0.03,1.53 l -0.079,0.449 c -0.428,3.881 -4.761,8.269 -6.849,10.374 -0.564,0.57 -0.937,0.946 -1.017,1.103 l -0.24,0.555 c -0.203,0.515 -0.368,0.959 -1.03,1.225 -0.383,0.149 -1.276,0.821 -2.312,1.597 -1.496,1.116 -3.351,2.504 -3.862,2.444 -0.855,-0.101 -4.848,-2.85 -5.016,-3.019 -3.889,-3.763 -5.516,-2.991 -6.49,-2.531 l -0.154,0.072 c -1.16,0.528 -2.378,3.814 -2.488,4.519 l -0.47,2.024 -0.361,1.487 c -0.107,0.503 -0.586,1.739 -1.043,2.933 l -0.938,2.6 c -0.155,0.602 -0.531,1.448 -0.837,2.132 l -0.415,1.013 c -0.289,1.189 -0.294,7.701 0.209,8.277 l 0.022,0.024 0.099,0.029 c 0.505,-0.052 1.589,-1.169 2.109,-1.708 l 0.12,-0.125 c 0.44,-0.442 0.907,-1.622 0.907,-2.118 0,-0.486 -0.227,-1.502 -0.317,-1.779 -0.704,-2.15 -0.438,-4.199 -0.31,-5.181 l 0.051,-0.438 c 0.037,-0.456 0.494,-0.961 0.938,-1.445 l 0.561,-0.649 c 0.308,-0.41 0.65,-0.546 0.955,-0.667 l 0.501,-0.286 0.078,-0.081 c 0.332,-0.333 0.889,-0.895 1.133,-1.647 l 0.476,-2.059 0.104,-0.55 c 0.024,-0.11 0.08,-0.171 0.173,-0.191 0.189,-0.042 0.472,0.108 0.593,0.269 l 3.442,3.994 c 0.882,0.751 1.788,1.647 1.788,1.844 l -0.001,0.017 c 0,-0.003 -0.021,0.001 -0.021,0.001 -0.482,0.05 -2.907,-0.467 -3.31,-0.582 -3.295,-0.966 -4.799,-0.796 -5.959,0.656 -1.322,1.663 -0.906,6.756 -0.636,7.314 0.248,0.506 1.454,6.711 1.508,7.538 0.054,0.811 0.368,2.261 0.696,2.594 l 0.09,0.092 c 0.406,0.402 1.476,1.477 1.665,2.537 0.204,1.154 2.655,4.244 3.59,4.521 a 0.46,0.46 0 0 0 0.412,-0.08 c 0.713,-0.506 1.037,-2.979 1.076,-4.023 0.046,-1.301 -0.421,-1.93 -0.917,-2.603 l -0.19,-0.263 c -0.365,-0.498 -1.008,-0.679 -1.432,-0.798 -0.181,-0.051 -0.429,-0.111 -0.429,-0.167 0,-0.019 -0.05,-1.925 -0.658,-2.293 -0.473,-0.291 -0.957,-2.13 -1.014,-2.83 -0.055,-0.695 -0.324,-2.373 -0.685,-3.11 -0.365,-0.74 -0.672,-2.104 -0.516,-3.156 0.065,-0.452 0.387,-0.594 0.649,-0.635 0.452,-0.072 0.974,0.123 1.055,0.281 0.18,0.362 3.655,2.458 4.827,2.908 0.728,0.276 1.713,1.108 2.583,1.85 0.619,0.519 1.151,0.966 1.483,1.125 0.448,0.216 1.718,0.241 2.738,0.261 0.541,0.009 1.103,0.022 1.179,0.067 -0.414,0.166 -0.409,0.892 -0.375,1.126 0.423,3.003 11.348,11.252 12.193,11.715 0.978,0.525 4.486,4.188 4.793,4.686 0.318,0.492 0.627,1.027 0.568,1.439 -0.084,0.609 0.16,1.305 0.648,1.873 0.467,0.529 1.076,0.848 1.639,0.848 0.488,0 0.814,-0.438 1.055,-0.754 l 0.051,-0.066 c 0.652,-0.863 1.619,-2.127 1.744,-4.104 0.133,-2.027 1.059,-2.832 1.361,-2.885 0.135,-0.025 0.234,0.016 0.27,0.105 0.037,0.092 -0.008,0.246 -0.191,0.367 -0.4,0.271 -0.65,1.168 -0.924,2.127 -0.002,0.008 -0.102,0.979 -0.102,0.979 -0.023,0.725 -0.051,1.547 -0.775,2.344 -1.084,1.174 -2.328,3.881 -2.65,7.299 -0.195,2.059 0.732,5.025 2.754,8.805 l 0.141,0.27 0.547,0.918 c 0.553,0.889 1.477,2.367 1.434,2.713 -0.059,0.488 -0.105,0.871 -0.947,1.928 -0.926,1.162 -4.305,5.094 -4.635,5.156 -0.672,0 -0.785,0.086 -1.326,0.496 l -0.57,0.434 c -0.624,0.443 -0.733,0.775 -0.838,1.068 -0.077,0.221 -0.15,0.414 -0.44,0.631 l -0.217,0.146 c -0.045,0.039 -0.167,0.211 -1.525,1.57 -1.557,1.539 -2.252,3.281 -2.012,5.012 0.077,0.541 0.543,0.73 1.925,0.793 1.38,0.064 4.544,-2.15 4.685,-2.871 l 0.049,-0.275 c 0.121,-0.65 0.324,-1.746 0.682,-1.904 0.432,-0.189 1.172,-1.043 1.715,-1.664 l 0.105,-0.117 c 0.289,-0.334 0.359,-0.666 0.428,-0.982 0.059,-0.25 0.113,-0.502 0.277,-0.732 0.129,-0.168 0.318,-0.26 0.537,-0.361 0.42,-0.201 0.949,-0.457 1.33,-1.414 0.379,-0.938 2.641,-2.561 4.293,-3.742 0.844,-0.6 1.506,-1.08 1.664,-1.291 0.217,-0.283 0.35,-0.828 0.35,-1.406 0,-0.686 -0.184,-1.416 -0.615,-1.822 -0.627,-0.582 -1.217,-2.314 -1.393,-2.857 v -0.012 c 0,-0.225 -0.021,-0.637 -0.055,-1.404 -0.004,-0.035 -0.004,-0.072 -0.004,-0.105 0,-2.029 3.016,-4.014 4.318,-4.869 l 0.594,-0.41 c 4.721,-4.164 5.645,-7.33 5.82,-8.199 l 0.096,-1.041 c 0.029,-0.721 0.053,-1.408 0.488,-1.498 0.17,-0.033 0.453,0.104 0.625,0.309 0.098,0.111 0.242,0.342 0.146,0.609 -0.215,0.584 -0.287,6.455 -0.289,6.699 0.016,0.041 0.508,0.621 0.508,0.621 l 0.09,0.105 0.027,-0.137 c 0.006,-0.068 0.277,-1.668 0.277,-2.234 0,-0.633 1.018,-3.344 1.264,-3.391 0,0.008 0.016,0.031 0.016,0.031 0.119,0.375 0.271,1.301 0.271,2.277 0,0.959 -0.145,1.967 -0.611,2.551 -0.707,0.875 -1.27,2.26 -1.637,3.174 l -0.34,0.777 a 0.865,0.865 0 0 0 -0.049,0.336 c 0,0.744 0.383,2.33 0.635,2.625 0.066,0.07 0.119,0.07 0.156,0.057 0.082,-0.031 0.156,-0.137 0.156,-0.76 0,-2.373 1.994,-4.094 2.018,-4.107 1.758,-1.395 2.141,-3.982 2.141,-5.953 0,-1.492 -0.219,-2.631 -0.225,-2.662 a 91.56,91.56 0 0 0 -0.844,-1.23 c 0.041,0.02 0.27,-0.168 0.346,-0.229 0.076,0.098 0.877,1.16 0.877,1.16 0.135,0.189 0.477,0.74 0.477,0.959 0,1.221 0.188,2.057 0.322,2.67 l 0.033,0.145 c 0.141,0.65 1.02,2.727 1.059,2.816 l 0.094,0.219 0.029,-0.238 c 0,-0.01 0.139,-1.096 0,-2.025 -0.08,-0.521 0.02,-1.16 0.121,-1.85 l 0.16,-1.584 c 0,-1.287 -0.184,-2.1 -0.643,-2.84 l -0.234,-0.355 c -0.092,-0.145 -0.182,-0.287 -0.172,-0.316 l 0.172,-0.074 c 3.713,-1.26 5.441,-3.994 6.145,-5.508 0.738,-1.604 0.777,-4.074 0.777,-4.549 0,-0.619 -0.027,-3.829 -0.566,-5.478 -0.316,-0.973 -0.215,-2.018 -0.109,-3.146 l 0.115,-1.931 c 0,-1.321 0.695,-2.302 1.369,-3.25 l 0.803,-1.244 c 0.525,-1.036 0.246,-1.943 0.035,-2.202 z"
         id="path33579" />
      <path
         d="m 93.703,36.369 c 0.062,0.004 0.851,-0.371 0.851,-0.371 0.035,-0.071 -0.148,-0.818 -0.148,-0.818 a 313.244,313.244 0 0 0 -1.717,-2.019 l -0.085,-0.099 -0.029,0.124 -0.184,0.809 c 10e-4,-0.008 -0.545,1.298 -0.545,1.298 l -0.025,0.055 1.15,0.588 z"
         id="path33581" />
      <path
         d="m 94.045,41.552 c 0.182,0.068 0.457,0.038 0.717,-0.078 0.398,-0.187 0.633,-0.507 0.532,-0.736 l -0.183,-0.165 c -0.18,-0.069 -0.455,-0.038 -0.711,0.08 -0.341,0.152 -0.559,0.405 -0.559,0.62 0,0.039 0.011,0.081 0.024,0.114 z m 6.869,-2.835 0.328,0.177 a 0.418,0.418 0 0 0 0.279,0.23 0.473,0.473 0 0 0 0.4,-0.1 c 0.088,-0.069 0.109,-0.198 0.053,-0.361 -0.088,-0.271 -0.371,-0.567 -0.676,-0.567 -0.393,0 -0.752,0.045 -0.752,0.335 10e-4,0.163 0.188,0.225 0.368,0.286 z m 0.393,1.159 c -0.152,0.112 -0.219,0.263 -0.176,0.416 l 0.031,0.127 c 0.039,0.15 0.053,0.181 0.191,0.197 l 0.25,0.045 c 0.32,0.082 0.826,-0.117 0.941,-0.373 0.039,-0.083 0.07,-0.244 -0.148,-0.396 -0.375,-0.25 -0.837,-0.196 -1.089,-0.016 z m 1.023,4.451 c -0.092,-0.044 -0.053,-0.19 0.018,-0.402 0.057,-0.173 0.109,-0.339 0.02,-0.43 -0.078,-0.075 -0.217,-0.069 -0.453,0.019 -0.85,0.306 -0.98,1.172 -1.074,1.805 l -0.029,0.195 c -0.049,0.282 0.096,0.378 0.186,0.41 0.293,0.104 0.822,-0.162 0.941,-0.365 0.133,-0.219 0.867,-0.419 1.402,-0.565 l 0.205,-0.056 c 0.248,-0.068 0.375,-0.163 0.393,-0.292 0.027,-0.169 -0.16,-0.323 -0.326,-0.422 -0.154,-0.091 -0.383,-0.026 -0.623,0.043 -0.238,0.065 -0.494,0.132 -0.66,0.06 z m -8.984,0.325 c 0.188,-0.019 0.335,-0.092 0.428,-0.226 0.271,-0.404 0.285,-0.976 0.022,-1.495 -0.254,-0.495 -0.689,-0.812 -1.133,-0.828 l 0.006,0.002 -0.097,-0.013 -0.818,0.064 c -0.432,0.096 -0.833,0.415 -0.93,0.729 -0.049,0.159 -0.021,0.304 0.088,0.413 0.656,0.695 1.789,1.403 2.434,1.354 z m -8.055,-0.658 c 0.098,0.241 0.547,0.268 1.206,0.072 l 0.145,-0.044 1.181,-0.462 1.711,-1.125 c 0.05,-0.039 0.497,-0.375 0.405,-0.59 -0.065,-0.141 -0.288,-0.116 -0.449,-0.086 -0.472,0.086 -0.935,0.313 -1.428,0.553 l -0.696,0.323 -0.307,0.126 C 86,43.199 85.132,43.592 85.291,43.994 Z m -3.598,1.252 c -0.356,0 -0.516,0.193 -0.646,0.364 l -0.159,0.18 c -0.274,0.235 -0.358,0.803 -0.324,1.235 0.014,0.18 0.065,0.506 0.242,0.61 0.339,0.209 0.501,0.062 0.847,-0.267 l 0.268,-0.23 c 0.34,-0.285 0.735,-0.608 0.784,-1.105 0.024,-0.21 -0.026,-0.383 -0.143,-0.513 -0.208,-0.226 -0.588,-0.274 -0.869,-0.274 z m 1.968,0.157 c -0.102,-0.022 -0.163,0.01 -0.195,0.043 -0.103,0.101 -0.061,0.317 -0.029,0.49 l 0.02,0.121 -0.021,0.073 c -0.023,0.062 -0.049,0.141 0,0.208 0.044,0.067 0.151,0.096 0.333,0.096 0.231,0.002 0.254,-0.022 0.332,-0.228 l 0.062,-0.159 c 0.056,-0.14 0.057,-0.266 0.004,-0.366 -0.095,-0.176 -0.331,-0.243 -0.506,-0.278 z m 1.903,3.084 a 0.47,0.47 0 0 0 0,-0.939 0.463,0.463 0 0 0 -0.46,0.469 c 0,0.259 0.205,0.47 0.46,0.47 z m 8.573,-1.144 a 0.369,0.369 0 0 0 -0.357,0.134 c -0.127,0.148 -0.9,0.678 -1.465,1.066 l -0.729,0.518 -0.059,0.057 c -0.091,0.086 -0.136,0.139 -0.077,0.317 l 0.089,0.125 0.192,-0.039 0.284,-0.105 0.409,-0.064 c 0.403,-0.052 0.844,-0.112 1.052,-0.325 l 0.271,-0.443 0.403,-0.647 c 0.193,-0.213 0.203,-0.359 0.176,-0.442 a 0.245,0.245 0 0 0 -0.189,-0.152 z m 0.847,2.614 c 0,0.239 0.119,0.333 0.186,0.366 0.181,0.096 0.441,0.003 0.596,-0.213 l 0.524,-0.456 c 0.284,-0.204 0.601,-0.434 0.882,-0.791 0.26,-0.335 0.148,-0.541 0.055,-0.629 -0.178,-0.174 -0.544,-0.214 -0.668,-0.112 l -0.151,0.103 c -0.343,0.223 -1.155,0.75 -1.359,1.391 a 1.058,1.058 0 0 0 -0.065,0.341 z m 3.414,-0.258 C 98.291,49.543 98.107,49.478 97.97,49.545 l -0.369,0.28 c -0.26,0.212 -0.584,0.481 -0.865,0.56 -0.682,0.183 -1.607,0.488 -1.664,0.956 l -0.001,0.061 c 0,0.129 0.058,0.206 0.114,0.249 0.259,0.211 0.888,0.086 1.343,-0.086 0.698,-0.258 1.122,-0.573 1.67,-1.071 0.337,-0.307 0.322,-0.614 0.2,-0.795 z m -2.652,5.39 -0.222,-0.025 c -0.574,0.153 -1.554,1.841 -2.242,3.099 l -0.123,0.218 -2.062,3.87 -0.647,1.232 c -0.072,0.112 -0.047,0.276 0.061,0.383 0.1,0.1 0.275,0.155 0.487,0.021 0.344,-0.229 1.599,-1.474 2.181,-2.452 l 0.775,-1.069 c 0.497,-0.649 1.063,-1.375 1.395,-2.24 l 0.117,-0.298 c 0.787,-2.041 0.91,-2.353 0.28,-2.739 z M 103.5,47.65 a 0.447,0.447 0 0 0 -0.457,0.437 c 0,0.241 0.205,0.437 0.457,0.437 0.252,0 0.453,-0.196 0.453,-0.437 A 0.444,0.444 0 0 0 103.5,47.65 Z m -0.217,1.823 c 0,0.242 0.205,0.438 0.457,0.438 a 0.442,0.442 0 0 0 0.447,-0.438 0.443,0.443 0 0 0 -0.447,-0.438 0.45,0.45 0 0 0 -0.457,0.438 z m 0.42,0.969 c -0.285,0 -0.521,0.189 -0.521,0.415 0,0.229 0.236,0.416 0.521,0.416 0.289,0 0.523,-0.186 0.523,-0.416 0.001,-0.226 -0.234,-0.415 -0.523,-0.415 z m -0.021,1.212 c -0.328,0 -0.59,0.207 -0.59,0.462 0,0.253 0.262,0.46 0.59,0.46 0.328,0 0.586,-0.208 0.586,-0.46 0,-0.255 -0.258,-0.462 -0.586,-0.462 z m 0.021,1.538 c -0.361,0 -0.66,0.215 -0.66,0.486 0,0.267 0.299,0.482 0.66,0.482 0.363,0 0.656,-0.215 0.656,-0.482 0,-0.271 -0.293,-0.486 -0.656,-0.486 z m -0.223,2.578 c 0.41,-0.036 0.711,-0.261 0.688,-0.521 l -0.129,-0.236 c -0.141,-0.119 -0.387,-0.179 -0.637,-0.156 -0.396,0.036 -0.689,0.25 -0.689,0.495 l 0.002,0.025 0.133,0.235 c 0.144,0.122 0.379,0.182 0.632,0.158 z m -0.896,1.286 -0.002,-0.012 z m 0.873,0.333 c 0.459,-0.068 0.783,-0.32 0.746,-0.58 l -0.135,-0.216 c -0.16,-0.123 -0.447,-0.172 -0.74,-0.129 -0.451,0.063 -0.783,0.32 -0.746,0.58 l 0.139,0.215 c 0.162,0.124 0.443,0.171 0.736,0.13 z m -0.773,0.781 c 0,0.283 0.344,0.509 0.795,0.509 0.449,0 0.789,-0.226 0.789,-0.509 0,-0.283 -0.34,-0.506 -0.789,-0.506 -0.452,10e-4 -0.795,0.223 -0.795,0.506 z m 1.406,1.655 c 0,-0.3 -0.41,-0.529 -0.934,-0.529 -0.518,0 -0.928,0.229 -0.928,0.529 0,0.298 0.41,0.531 0.928,0.531 0.524,0 0.934,-0.233 0.934,-0.531 z m -0.596,1.397 c 0,-0.293 -0.307,-0.53 -0.678,-0.53 -0.377,0 -0.684,0.237 -0.684,0.53 0,0.293 0.307,0.531 0.684,0.531 0.372,0 0.678,-0.238 0.678,-0.531 z m -0.32,1.747 c 0,-0.329 -0.324,-0.6 -0.727,-0.6 -0.398,0 -0.721,0.271 -0.721,0.6 0,0.332 0.322,0.599 0.721,0.599 0.403,0 0.727,-0.267 0.727,-0.599 z m -0.59,1.7 c 0,-0.296 -0.266,-0.531 -0.59,-0.531 -0.322,0 -0.594,0.234 -0.594,0.531 0,0.291 0.271,0.529 0.594,0.529 0.324,0.001 0.59,-0.238 0.59,-0.529 z m -1.022,1.006 c -0.312,0 -0.57,0.237 -0.57,0.531 0,0.291 0.258,0.528 0.57,0.528 0.311,0 0.566,-0.238 0.566,-0.528 0.001,-0.294 -0.255,-0.531 -0.566,-0.531 z m -0.482,2.551 c 0.32,0 0.592,-0.206 0.592,-0.461 0,-0.255 -0.271,-0.458 -0.592,-0.458 -0.322,0 -0.586,0.204 -0.586,0.458 0,0.254 0.264,0.461 0.586,0.461 z m -0.543,1.117 c 0.297,0 0.541,-0.173 0.541,-0.391 0,-0.217 -0.24,-0.389 -0.541,-0.389 -0.311,0 -0.547,0.171 -0.547,0.389 0,0.218 0.244,0.391 0.547,0.391 z m -0.527,1.074 c 0.283,0 0.523,-0.175 0.523,-0.392 0,-0.215 -0.24,-0.39 -0.523,-0.39 -0.291,0 -0.521,0.175 -0.521,0.39 -0.001,0.217 0.23,0.392 0.521,0.392 z m -15.418,-0.951 0.094,0.018 0.712,-0.128 c 0.632,-0.14 1.584,-0.353 2.755,-0.384 0.856,-0.023 1.784,0.276 2.458,0.496 0.612,0.204 0.917,0.292 1.033,0.166 0.073,-0.083 0.028,-0.204 -0.012,-0.289 -0.184,-0.397 -0.99,-1.702 -3.62,-1.762 -1.709,-0.039 -3.102,1.123 -3.4,1.614 -0.059,0.1 -0.075,0.174 -0.045,0.229 z m 9.78,4.944 c 0.167,-0.107 0.239,-0.296 0.228,-0.567 -0.056,-1.064 -0.341,-1.185 -0.928,-1.185 -0.595,0 -1.025,0.597 -1.025,0.907 0,0.291 0.214,0.546 0.629,0.754 0.235,0.124 0.776,0.301 1.096,0.091 z m 8.069,13.007 c 0.848,0.396 1.146,0.537 1.273,0.576 0.004,0 0.008,0.012 0.008,0.012 0,0 0.006,-0.005 0.006,-0.007 0.059,0.018 0.078,0.011 0.092,-0.009 -0.008,-0.006 -0.041,-0.056 -0.059,-0.07 0.01,-0.008 0.02,-0.029 0.02,-0.029 0,0 -0.053,-0.022 -0.057,-0.027 -0.561,-0.708 -3.939,-5.511 -4.658,-8.672 -0.113,-0.521 -0.246,-1.006 -0.586,-1.2 -0.191,-0.107 -0.432,-0.115 -0.725,-0.017 h -0.002 c -0.068,0.02 -0.117,0.076 -0.148,0.158 a 0.768,0.768 0 0 0 -0.037,0.276 c 0,1.129 1.203,4.237 1.596,4.876 2.174,3.529 3.236,4.109 3.277,4.133 z m 27.612,1.373 -0.129,0.025 c 0.004,0.02 0.033,0.963 0.033,2.174 0,1.766 -0.061,4.121 -0.367,5.179 -0.248,0.857 -1.385,2.498 -2.303,3.811 0,0 -1.068,1.602 -1.068,1.604 a 0.344,0.344 0 0 0 -0.045,0.176 c 0,0.158 0.08,0.307 0.221,0.4 0.107,0.074 0.494,0.264 1.033,-0.379 l 0.682,-0.721 c 0.91,-0.908 2.041,-2.035 2.838,-4.523 0.874,-2.731 -0.88,-7.699 -0.895,-7.746 z m -28.449,8.898 c 0.082,0.082 0.215,0.105 0.354,0.055 a 0.584,0.584 0 0 0 0.391,-0.504 c 0.033,-0.342 0.271,-0.801 0.625,-1.193 a 1.079,1.079 0 0 0 -0.068,-1.496 l -0.453,-0.181 c -0.291,0.01 -0.508,0.243 -0.52,0.25 a 232.03,232.03 0 0 0 -0.445,2.182 v -0.002 c -0.043,0.121 -0.082,0.699 0.116,0.889 z m 14.73,8.054 -0.023,-0.01 -0.023,0.01 c -0.018,0.014 -0.398,0.191 -0.506,0.562 -0.074,0.25 0.064,0.467 0.172,0.646 l 0.127,0.238 0.055,0.475 0.086,0.699 a 0.333,0.333 0 0 0 0.34,0.238 c 0.178,-0.006 0.385,-0.143 0.453,-0.42 0.092,-0.375 0.137,-0.883 0.137,-1.559 -0.002,-0.617 -0.783,-0.871 -0.818,-0.879 z m -22.862,-5.687 c -0.051,-0.059 -5.451,-5.919 -6.618,-7.454 -1.189,-1.573 -1.757,-1.692 -2.339,-1.37 a 0.306,0.306 0 0 0 -0.153,0.239 c -0.084,0.639 1.265,2.185 2.446,3.32 1.651,1.589 6.528,5.324 6.578,5.361 z M 72.307,82.76 C 71.213,82.081 69.319,81.704 69.3,81.696 l -0.05,0.115 2.101,1.584 c 0.346,0.284 1.875,1.233 2.369,0.845 a 0.247,0.247 0 0 0 0.098,-0.208 C 73.802,83.747 73.272,83.366 72.307,82.76 Z m -0.513,-8.965 0.148,-0.063 c 0.189,-0.213 -0.246,-0.818 -0.775,-1.307 -0.477,-0.44 -0.962,-0.724 -1.216,-0.71 l -0.144,0.062 a 0.195,0.195 0 0 0 -0.044,0.134 c 0,0.276 0.378,0.764 0.817,1.174 0.478,0.44 0.967,0.726 1.214,0.71 z m 5.614,-0.765 -0.215,0.013 c -0.408,0.171 -1.056,1.208 -1.573,2.521 -0.364,0.927 -0.639,1.938 -0.639,2.547 0,0.289 0.062,0.485 0.2,0.543 l 0.212,-0.013 c 0.408,-0.174 1.054,-1.213 1.577,-2.522 0.363,-0.929 0.635,-1.94 0.635,-2.55 0,-0.287 -0.059,-0.484 -0.197,-0.539 z M 67.302,66.626 c -0.527,0 -0.947,0.25 -0.947,0.566 0,0.314 0.42,0.561 0.947,0.561 0.535,0 0.951,-0.247 0.951,-0.561 0,-0.316 -0.416,-0.566 -0.951,-0.566 z m -3.361,6.997 0.164,-0.015 c 0.285,-0.14 0.716,-0.915 1.041,-1.882 0.344,-1.029 0.532,-2.134 0.199,-2.252 l -0.161,0.017 c -0.29,0.143 -0.72,0.916 -1.042,1.882 -0.35,1.03 -0.527,2.135 -0.201,2.25 z m 0.88,5.323 c 0.28,-0.375 0.336,-0.797 0.128,-0.955 l -0.242,-0.052 c -0.202,0.026 -0.443,0.196 -0.623,0.447 -0.28,0.375 -0.336,0.796 -0.129,0.951 l 0.243,0.057 c 0.201,-0.031 0.445,-0.199 0.623,-0.448 z m -0.322,5.83 -0.023,-0.014 -0.105,-0.011 c -0.378,0.088 -0.112,1.734 0.083,2.6 0.277,1.209 0.652,2.185 0.912,2.347 l 0.022,0.016 0.103,0.011 c 0.384,-0.088 0.112,-1.742 -0.082,-2.6 -0.275,-1.216 -0.646,-2.186 -0.91,-2.349 z m -3.808,2.21 c -0.305,0 -0.551,0.226 -0.551,0.508 0,0.268 0.246,0.494 0.551,0.494 0.303,0 0.557,-0.226 0.557,-0.494 0.001,-0.282 -0.253,-0.508 -0.557,-0.508 z m 9.356,11.948 a 0.64,0.64 0 0 0 -0.643,0.631 c 0,0.34 0.289,0.621 0.643,0.621 a 0.635,0.635 0 0 0 0.646,-0.621 0.64,0.64 0 0 0 -0.646,-0.631 z m 31.629,16.646 c 0.02,0.031 0.078,0.135 0.166,0.125 l 0.037,-0.002 0.068,-0.102 0.58,-1.768 0.453,-1.178 0.387,-0.896 c 0.119,-0.301 0.119,-0.502 0.002,-0.619 -0.186,-0.17 -0.57,-0.025 -0.617,-0.008 -0.031,0.025 -1.09,1.793 -1.09,1.793 -0.207,0.316 -0.285,0.742 -0.285,1.18 0,0.624 0.156,1.247 0.299,1.475 z m 2.646,8.832 0.021,-0.178 c 0.014,-0.105 0.332,-2.564 -0.424,-3.514 a 0.922,0.922 0 0 0 -0.652,-0.365 c -0.227,-0.021 -0.383,0.045 -0.469,0.188 -0.461,0.754 1.348,3.594 1.428,3.717 z m 4.235,4.678 a 0.656,0.656 0 0 0 -0.664,0.65 c 0,0.365 0.297,0.648 0.664,0.648 a 0.649,0.649 0 1 0 0,-1.298 z m -9.971,-7.92 c -0.311,0 -0.576,0.242 -0.576,0.541 0,0.307 0.266,0.543 0.576,0.543 0.318,0 0.574,-0.236 0.574,-0.543 0,-0.299 -0.256,-0.541 -0.574,-0.541 z m 7.266,9.59 -0.07,-0.016 c -0.344,0 -1.646,1.139 -2.756,2.275 -0.098,0.104 -2.508,2.576 -2.189,2.898 l 0.018,0.02 0.078,0.016 c 0.348,0 1.648,-1.143 2.752,-2.273 0.104,-0.105 2.518,-2.568 2.189,-2.902 z m -7.237,6.683 c -0.201,0 -0.516,0.188 -0.797,0.469 -0.336,0.336 -0.58,0.801 -0.4,0.992 l 0.012,0.012 -0.012,-0.012 0.178,0.064 c 0.205,0 0.521,-0.184 0.801,-0.471 0.328,-0.34 0.58,-0.795 0.393,-0.988 z m -3.175,4.575 c -0.247,0 -0.596,0.203 -0.901,0.512 -0.319,0.32 -0.502,0.674 -0.502,0.92 0,0.094 0.025,0.17 0.084,0.223 l 0.225,0.086 c 0.243,0 0.602,-0.197 0.901,-0.508 0.443,-0.453 0.621,-0.938 0.42,-1.148 z M 78.841,118.975 c -0.476,0 -0.863,0.271 -0.863,0.613 0,0.34 0.388,0.602 0.863,0.602 0.48,0 0.863,-0.262 0.863,-0.602 0.001,-0.342 -0.383,-0.613 -0.863,-0.613 z m 7.03,0.492 c -0.338,0 -0.601,0.182 -0.601,0.422 0,0.225 0.263,0.41 0.601,0.41 0.326,0 0.596,-0.186 0.596,-0.41 0,-0.235 -0.27,-0.422 -0.596,-0.422 z m 8.58,2.871 0.052,-0.08 c 0.097,-0.404 -1.927,-1.035 -3.009,-1.309 -1.299,-0.332 -2.843,-0.598 -3.184,-0.393 l -0.024,0.016 -0.055,0.084 c -0.098,0.408 1.925,1.031 3.009,1.314 1.298,0.326 2.842,0.584 3.188,0.381 z"
         fill="#ffffff"
         id="path33583" />
    </g>
  </g>
</svg>
