<?xml version="1.0" encoding="UTF-8" standalone="no"?>
<!-- Created with Inkscape (http://www.inkscape.org/) -->

<svg
   width="210mm"
   height="297mm"
   viewBox="0 0 210 297"
   version="1.1"
   id="svg1"
   inkscape:version="1.3.2 (091e20e, 2023-11-25)"
   sodipodi:docname="logo_apple.svg"
   xmlns:inkscape="http://www.inkscape.org/namespaces/inkscape"
   xmlns:sodipodi="http://sodipodi.sourceforge.net/DTD/sodipodi-0.dtd"
   xmlns="http://www.w3.org/2000/svg"
   xmlns:svg="http://www.w3.org/2000/svg">
  <sodipodi:namedview
     id="namedview1"
     pagecolor="#ffffff"
     bordercolor="#000000"
     borderopacity="0.25"
     inkscape:showpageshadow="2"
     inkscape:pageopacity="0.0"
     inkscape:pagecheckerboard="0"
     inkscape:deskcolor="#d1d1d1"
     inkscape:document-units="mm"
     inkscape:zoom="0.2102413"
     inkscape:cx="397.16269"
     inkscape:cy="561.25984"
     inkscape:window-width="1440"
     inkscape:window-height="847"
     inkscape:window-x="0"
     inkscape:window-y="25"
     inkscape:window-maximized="1"
     inkscape:current-layer="layer1" />
  <defs
     id="defs1" />
  <g
     inkscape:label="Layer 1"
     inkscape:groupmode="layer"
     id="layer1">
    <path
       d="M 110.86392,125.22135 C 116.10264,120.02533 123.38572,120 123.38572,120 c 0,0 1.08334,4.88513 -4.12105,9.59108 -5.55702,5.02491 -11.87332,4.20267 -11.87332,4.20267 0,0 -1.18603,-3.95192 3.47257,-8.5724 z m -2.80625,11.99442 c 2.69505,0 7.69696,-2.78785 14.20764,-2.78785 11.20698,0 15.61581,6.00101 15.61581,6.00101 0,0 -8.62287,3.31763 -8.62287,11.36774 0,9.0812 10.74175,12.21087 10.74175,12.21087 0,0 -7.50887,15.90434 -17.65127,15.90434 -4.65833,0 -8.27997,-2.36233 -13.18821,-2.36233 C 104.15861,177.54955 99.194961,180 95.962089,180 86.700535,180.00019 75,164.91325 75,152.78587 c 0,-11.93163 9.903755,-18.19078 19.193049,-18.19078 6.038881,0 10.725111,2.62068 13.864621,2.62068 z"
       fill="#999999"
       id="path33109"
       style="stroke-width:0.113623" />
  </g>
</svg>
