<?xml version="1.0" encoding="UTF-8" standalone="no"?>
<!-- Created with Inkscape (http://www.inkscape.org/) -->

<svg
   width="210mm"
   height="297mm"
   viewBox="0 0 210 297"
   version="1.1"
   id="svg1"
   inkscape:version="1.3.2 (091e20e, 2023-11-25)"
   sodipodi:docname="logo_chanel.svg"
   xmlns:inkscape="http://www.inkscape.org/namespaces/inkscape"
   xmlns:sodipodi="http://sodipodi.sourceforge.net/DTD/sodipodi-0.dtd"
   xmlns="http://www.w3.org/2000/svg"
   xmlns:svg="http://www.w3.org/2000/svg">
  <sodipodi:namedview
     id="namedview1"
     pagecolor="#ffffff"
     bordercolor="#000000"
     borderopacity="0.25"
     inkscape:showpageshadow="2"
     inkscape:pageopacity="0.0"
     inkscape:pagecheckerboard="0"
     inkscape:deskcolor="#d1d1d1"
     inkscape:document-units="mm"
     inkscape:zoom="0.54660447"
     inkscape:cx="405.22903"
     inkscape:cy="601.89775"
     inkscape:window-width="1440"
     inkscape:window-height="847"
     inkscape:window-x="0"
     inkscape:window-y="25"
     inkscape:window-maximized="1"
     inkscape:current-layer="layer1" />
  <defs
     id="defs1" />
  <g
     inkscape:label="Layer 1"
     inkscape:groupmode="layer"
     id="layer1">
    <path
       d="m 79.649448,179.99538 c -0.02762,-0.004 -0.12127,-0.018 -0.208106,-0.0301 -0.792623,-0.11092 -1.638736,-0.56286 -2.303856,-1.23046 -0.997226,-1.00093 -1.699948,-2.4584 -1.993061,-4.13362 -0.155763,-0.89018 -0.18672,-1.88751 -0.0871,-2.805 0.267106,-2.45995 1.433056,-4.56701 3.050479,-5.51277 0.403653,-0.23602 0.804249,-0.38528 1.276131,-0.47546 0.261582,-0.05 0.898628,-0.0502 1.16252,-4.3e-4 0.559632,0.10558 1.033968,0.30231 1.521322,0.63105 0.536252,0.36174 0.907368,0.7342 1.356574,1.36154 0.392702,0.54844 0.635195,1.0049 0.916338,1.72497 l 0.0598,0.15312 -0.211953,0.21859 c -0.291978,0.30111 -0.976874,0.98243 -1.199935,1.19364 l -0.184281,0.17449 -0.07579,-0.22968 c -0.09372,-0.28397 -0.160442,-0.45226 -0.268486,-0.67722 -0.43171,-0.89887 -1.120137,-1.5409 -1.870536,-1.74446 -0.397066,-0.10772 -0.885898,-0.0958 -1.277337,0.0313 -0.411044,0.13336 -0.857408,0.43271 -1.1984,0.80356 -0.13745,0.14956 -0.390419,0.49925 -0.501721,0.69373 -0.600562,1.04921 -0.821785,2.38589 -0.615804,3.72099 0.07131,0.46221 0.255898,1.06613 0.44846,1.46723 0.509642,1.06159 1.290827,1.74171 2.175662,1.89419 0.156424,0.0271 0.533223,0.0271 0.689647,0 0.78361,-0.13514 1.507658,-0.70266 2.002419,-1.56979 0.145703,-0.25539 0.247243,-0.47643 0.363051,-0.79038 0.05075,-0.13763 0.09651,-0.25012 0.101679,-0.25012 0.0052,0 0.36595,0.35495 0.801709,0.78882 l 0.792293,0.7888 -0.08029,0.21168 c -0.166613,0.43933 -0.453238,0.99157 -0.720201,1.3876 -0.454818,0.67473 -0.897825,1.13322 -1.474219,1.52583 -0.497832,0.33905 -1.025343,0.55534 -1.585906,0.65019 -0.125689,0.0214 -0.771756,0.0424 -0.861112,0.0281 z m 6.774189,-7.18183 v -6.91329 h 1.92318 v 4.96236 h 5.023234 v -4.96236 h 1.923179 v 13.82659 h -1.923179 v -6.08291 h -5.023234 v 6.08291 h -1.92318 z m 10.812575,5.68772 c 0.214355,-0.67409 1.203389,-3.78505 2.197837,-6.91331 l 1.808101,-5.68768 1.3491,1.9e-4 1.34909,2.2e-4 2.18567,6.82804 c 1.20212,3.75543 2.198,6.86629 2.21311,6.91308 l 0.0275,0.0851 h -2.30282 l -0.44458,-1.37055 -0.44457,-1.37055 -2.57335,0.005 -2.57335,0.005 -0.439605,1.36566 -0.43959,1.36565 h -2.302273 z m 7.124998,-4.30494 c -0.008,-0.0488 -1.7553,-5.49363 -1.76277,-5.49351 -0.005,2.2e-4 -1.66466,5.3992 -1.69116,5.50271 -0.003,0.0107 0.66056,0.0187 1.72689,0.0187 1.47301,0 1.73097,-0.004 1.72704,-0.028 z m 5.5568,-1.38278 v -6.91329 l 1.35268,4.1e-4 1.35269,4.3e-4 2.11694,4.14526 2.11693,4.14529 0.004,-4.1457 0.004,-4.14569 h 1.93748 v 13.82695 l -0.77741,-0.005 -0.77741,-0.005 -2.68503,-5.19672 c -1.47677,-2.8582 -2.68988,-5.19705 -2.69579,-5.19748 -0.006,-4.1e-4 -0.0102,2.34037 -0.0102,5.20172 v 5.20249 H 109.919 Z m 12.38586,0 v -6.91329 h 6.93206 v 2.78132 h -4.99453 v 2.76131 h 4.62137 v 2.78134 h -4.62137 v 2.76131 h 5.71213 v 2.74131 h -7.64966 z m 10.36221,0 v -6.91329 h 1.93753 v 11.08528 H 140 v 2.74131 h -7.33392 z M 99.463013,162.3838 c -2.070105,-0.13353 -4.37529,-1.00982 -6.233686,-2.36973 -1.426684,-1.04403 -2.557427,-2.2123 -3.741992,-3.86633 -0.927792,-1.29545 -1.612271,-2.48879 -2.191679,-3.82092 l -0.253645,-0.58317 0.359835,-0.2661 c 0.701158,-0.51847 3.897512,-2.80035 3.9226,-2.80035 0.01401,0 0.146062,0.25058 0.293442,0.55686 1.665734,3.46139 4.271644,5.71309 7.321159,6.32594 0.533109,0.10719 2.136203,0.0901 2.716733,-0.029 0.64598,-0.13246 1.42078,-0.37803 1.91292,-0.60635 0.0321,-0.0143 -0.0291,-0.15348 -0.16996,-0.38476 -1.09002,-1.7914 -2.08369,-4.25014 -2.64273,-6.5391 -1.011201,-4.14052 -1.083189,-8.58502 -0.20666,-12.76098 0.5443,-2.59324 1.48104,-5.11028 2.66737,-7.16722 0.17674,-0.30644 0.32137,-0.57683 0.32137,-0.60082 0,-0.0815 -0.92606,-0.42528 -1.53301,-0.56891 -0.93772,-0.22188 -2.405716,-0.24941 -3.253199,-0.0609 -1.42598,0.31706 -2.873328,1.06164 -4.004331,2.05996 -1.260358,1.11253 -2.311377,2.54222 -3.15007,4.28511 l -0.370341,0.76953 -0.471395,-0.34502 c -0.259257,-0.18974 -1.222368,-0.88562 -2.140227,-1.54632 -0.91786,-0.66069 -1.671689,-1.20478 -1.675177,-1.20908 -0.0146,-0.018 0.560034,-1.29217 0.796556,-1.76631 0.718165,-1.43963 1.993405,-3.34622 2.935563,-4.38892 2.463652,-2.7265 5.202505,-4.26203 8.285999,-4.6455 0.571996,-0.0712 1.990292,-0.0718 2.542082,-10e-4 1.95762,0.25054 3.63568,0.91233 5.36934,2.11736 l 0.82854,0.57591 0.27757,-0.22021 c 0.44821,-0.35557 1.24457,-0.86865 1.84936,-1.19152 1.69695,-0.90585 3.40594,-1.33704 5.29415,-1.33576 1.31857,9.1e-4 2.41858,0.18154 3.61272,0.59323 2.69781,0.93009 4.99846,2.71385 6.98071,5.41232 1.07466,1.46294 1.91686,2.95663 2.59685,4.60569 l 0.10305,0.24995 -1.67719,1.20632 c -0.92246,0.66349 -1.88743,1.36004 -2.14438,1.54786 l -0.46717,0.34157 -0.35313,-0.74271 c -1.74241,-3.6645 -4.59254,-6.05016 -7.71218,-6.45542 -0.92356,-0.12 -2.29494,-0.009 -3.12856,0.25205 -0.42902,0.1346 -1.1255,0.41203 -1.12531,0.44825 1.4e-4,0.0189 0.11404,0.2292 0.25323,0.4673 1.78773,3.05823 2.90399,6.78614 3.26466,10.90295 0.0861,0.98259 0.0976,3.49125 0.0204,4.46399 -0.32578,4.10786 -1.43986,7.89881 -3.21818,10.95067 -0.40317,0.69184 -0.38595,0.64398 -0.25666,0.71361 0.061,0.0329 0.34679,0.14315 0.63496,0.24489 1.46457,0.51737 3.04112,0.59047 4.5214,0.20963 2.69234,-0.69267 5.11716,-2.91263 6.67675,-6.1127 0.14503,-0.29762 0.27602,-0.56104 0.29107,-0.58547 0.0151,-0.0244 0.37453,0.19829 0.79889,0.49485 0.84061,0.58748 3.47372,2.48718 3.50197,2.52655 0.047,0.0655 -0.79212,1.80229 -1.30678,2.7044 -0.48723,0.85406 -1.76435,2.63253 -2.37449,3.30669 -2.20502,2.43625 -4.67955,3.92582 -7.40514,4.45766 -3.12954,0.61065 -6.44383,-0.20715 -9.14048,-2.2554 l -0.38111,-0.28945 -0.47271,0.34868 c -2.34212,1.72766 -5.02863,2.55123 -7.749682,2.3758 z m 8.743277,-12.00212 c 1.30518,-2.25249 2.11955,-4.98481 2.32024,-7.78476 0.0674,-0.93973 0.0273,-2.85399 -0.0775,-3.70969 -0.28868,-2.35465 -0.90635,-4.37282 -1.90276,-6.21708 -0.18764,-0.34727 -0.46085,-0.81156 -0.60719,-1.03166 l -0.26605,-0.40025 -0.24685,0.37317 c -0.32538,0.49191 -0.86762,1.49547 -1.14093,2.11158 -1.3877,3.12849 -1.84079,6.97197 -1.25313,10.63006 0.36982,2.30199 1.22007,4.62094 2.36589,6.45263 l 0.26387,0.42179 0.11544,-0.15241 c 0.0635,-0.0837 0.25654,-0.39585 0.42899,-0.69342 z"
       id="path33554"
       style="fill:#000000;stroke-width:0.0169464" />
  </g>
</svg>
